<?xml version="1.0" standalone="yes"?>

<svg version="1.1" viewBox="0.0 0.0 938.9448818897638 392.26509186351706" fill="none" stroke="none" stroke-linecap="square" stroke-miterlimit="10" xmlns="http://www.w3.org/2000/svg" xmlns:xlink="http://www.w3.org/1999/xlink"><clipPath id="p.0"><path d="m0 0l938.9449 0l0 392.2651l-938.9449 0l0 -392.2651z" clip-rule="nonzero"></path></clipPath><g clip-path="url(#p.0)"><path fill="#000000" fill-opacity="0.0" d="m0 0l938.9449 0l0 392.2651l-938.9449 0z" fill-rule="nonzero"></path><path fill="#ffffff" d="m0 0l935.4961 0l0 386.04724l-935.4961 0z" fill-rule="nonzero"></path><path stroke="#ffffff" stroke-width="2.0" stroke-linejoin="round" stroke-linecap="butt" d="m0 0l935.4961 0l0 386.04724l-935.4961 0z" fill-rule="nonzero"></path><path fill="#ffd966" d="m13.146981 63.070866l232.44093 0l0 65.921265l-232.44093 0z" fill-rule="nonzero"></path><path stroke="#000000" stroke-width="2.0" stroke-linejoin="round" stroke-linecap="butt" d="m13.146981 63.070866l232.44093 0l0 65.921265l-232.44093 0z" fill-rule="nonzero"></path><path fill="#000000" d="m47.85276 93.59212l0.96875 0.234375q0.4375 -0.453125 1.40625 -2.234375l-4.828125 0l0 -1.40625l5.421875 0q0.59375 -1.40625 0.890625 -2.671875l1.640625 0.59375q0.296875 0.296875 -0.234375 0.375q-0.140625 0.65625 -0.65625 1.703125l8.609375 0l0 1.40625l-9.203125 0q-0.890625 2.0 -2.53125 4.15625l0 8.765625l-1.484375 0l0 -7.359375q-0.96875 0.96875 -2.75 2.015625l-0.734375 -1.71875q2.078125 -0.953125 3.484375 -2.515625l0 -1.34375zm8.390625 -0.953125q0.59375 0.0625 0.078125 0.4375l0 2.890625l3.78125 0l0 1.421875l-3.78125 0l0 4.890625l4.890625 0l0 1.421875l-11.203125 0l0 -1.421875l4.828125 0l0 -4.890625l-4.09375 0l0 -1.421875l4.09375 0l0 -3.328125l1.40625 0zm16.921875 -4.609375l6.96875 0l0 15.140625q0 1.1875 -1.1875 1.1875l-1.78125 0l-0.21875 -1.40625l1.40625 0q0.296875 0 0.296875 -0.296875l0 -8.46875l-2.734375 0l-2.75 0l0 -6.15625zm-6.15625 11.5l0 -1.1875l2.96875 0l0 -1.78125l-2.453125 0l0 -1.1875l9.34375 0l0 1.1875l-1.921875 0l0 1.78125l2.515625 0l0 1.1875l-2.515625 0l0 4.46875l-1.484375 0l0 -4.46875l-2.0 0q0.140625 3.265625 -3.34375 4.828125l-0.75 -1.40625q2.609375 -0.96875 2.609375 -3.421875l-2.96875 0zm2.671875 -10.3125l-3.71875 0l0 1.34375l3.71875 0l0 -1.34375zm1.484375 4.96875l-5.203125 0l0 10.40625l-1.484375 0l0 -16.5625l6.6875 0l0 6.15625zm2.296875 4.15625l0 -1.78125l-2.0 0l0 1.78125l2.0 0zm5.1875 -7.78125l0 -1.34375l-4.0 0l0 1.34375l4.0 0zm-4.0 2.4375l4.0 0l0 -1.25l-4.0 0l0 1.25zm-8.6875 0l3.71875 0l0 -1.25l-3.71875 0l0 1.25zm32.4375 11.359375q-2.375 -0.59375 -4.453125 -1.625q-1.9375 1.328125 -4.015625 1.78125l-0.65625 -1.1875q2.296875 -0.59375 3.625 -1.484375q-1.109375 -1.125 -1.625 -2.453125l-0.96875 0l0 -1.1875l6.015625 0l0.296875 -0.296875l0.890625 0.890625q0.4375 0.515625 -0.21875 0.4375q-0.96875 1.484375 -2.078125 2.53125q1.78125 0.8125 4.078125 1.1875l-0.890625 1.40625zm-8.984375 -5.9375l-0.21875 3.5625q-0.15625 2.453125 -2.671875 2.453125l-1.40625 0l-0.375 -1.40625l1.78125 0q1.1875 0 1.265625 -1.1875l0.140625 -2.234375l-2.515625 0l-0.15625 0.8125l-1.5625 0q0.671875 -2.8125 0.890625 -4.671875l3.5625 0l0 -1.5625l-2.890625 0l0 -0.21875q-0.59375 0.375 -1.78125 0.8125l-0.734375 -1.1875q2.140625 -0.8125 3.5625 -1.78125l-2.078125 -1.703125l1.03125 -0.96875l2.375 1.78125q1.265625 -0.890625 2.0 -1.84375l-3.265625 0l0 -1.1875l4.234375 0l0.21875 -0.375l1.125 0.671875q0.515625 0.359375 -0.078125 0.4375l-0.15625 0.15625q0.828125 0.65625 1.34375 1.03125l1.78125 -1.78125l1.109375 0.59375q0.453125 0.296875 -0.21875 0.296875l-1.5625 1.5625q0.375 0.296875 1.109375 0.59375l1.78125 -1.859375l1.046875 0.59375q0.375 0.296875 -0.15625 0.296875l-1.546875 1.640625q1.484375 0.734375 3.265625 1.328125l-0.671875 1.484375q-1.484375 -0.59375 -3.125 -1.484375l0 2.375q0 0.671875 0.59375 0.671875l0.375 0q0.375 0 0.453125 -0.515625l0.140625 -0.828125l1.40625 0.375l-0.296875 1.109375q-0.296875 1.046875 -1.25 1.046875l-1.421875 0q-1.25 0 -1.25 -1.40625l0 -1.78125l-2.015625 0l0 0.953125q0 1.78125 -2.078125 2.828125l-0.734375 -0.96875q1.5625 -0.671875 1.5625 -2.078125l0 -1.921875l4.21875 0q-2.8125 -1.640625 -4.59375 -3.265625q-1.640625 2.0 -4.078125 3.328125l2.515625 0l0 3.9375l-3.640625 0l-0.21875 1.484375l3.859375 0zm3.34375 0.96875q0.515625 1.03125 1.265625 1.625q0.953125 -0.8125 1.40625 -1.625l-2.671875 0zm20.625 5.34375l-1.484375 0l0 -3.78125q-1.78125 2.0 -4.515625 2.8125l-0.59375 -1.484375q3.5625 -0.96875 4.96875 -3.109375l-2.828125 0l0 -3.859375l8.015625 0l0 3.625l1.1875 1.046875q0.078125 0.375 -0.359375 0.21875q-1.265625 0.75 -2.3125 1.109375q1.34375 0.890625 3.265625 1.34375l-0.515625 1.5625q-3.109375 -1.046875 -4.828125 -3.125l0 3.640625zm1.1875 -4.15625q0.59375 -0.296875 2.015625 -1.40625l-3.34375 0q0.59375 0.8125 1.328125 1.40625zm-7.265625 -7.34375l11.203125 0l0 1.1875l-11.203125 0l0 -1.1875zm-0.15625 2.8125l-1.78125 0l0 4.15625l2.078125 -0.734375l0.296875 1.328125l-5.1875 2.15625q-0.078125 0.375 -0.375 0.15625l-0.59375 -1.71875l2.296875 -0.671875l0 -4.671875l-1.78125 0l0 -1.40625l1.78125 0l0 -4.15625l-2.078125 0l0 -1.40625l5.578125 0l0 1.40625l-2.015625 0l0 4.15625l1.78125 0l0 1.40625zm8.546875 0.453125l-5.5 0l0 1.484375l5.5 0l0 -1.484375zm2.0 -4.15625l-9.5 0l0 -4.3125l9.5 0l0 4.3125zm-1.265625 -3.125l-1.484375 0l0 1.9375l1.484375 0l0 -1.9375zm-2.75 0l-1.484375 0l0 1.9375l1.484375 0l0 -1.9375zm-2.734375 0l-1.484375 0l0 1.9375l1.484375 0l0 -1.9375zm15.953125 10.90625q-4.234375 1.265625 -5.5 1.640625q-0.21875 0.59375 -0.359375 0.078125l-0.453125 -1.5625q1.40625 -0.296875 2.53125 -0.59375l0 -6.390625l-2.078125 0l0 -1.40625l2.078125 0l0 -3.78125l1.40625 0q0.59375 0.078125 0.078125 0.4375l0 3.34375l1.84375 0l0 0.59375l3.0468826 0l-0.890625 -1.859375l-1.3281326 0l0 -1.1875l3.7031326 0l0 -2.0l1.40625 0q0.59375 0.078125 0.078125 0.453125l0 1.546875l4.234375 0l0 1.1875l-1.859375 0l-0.8125 1.859375l3.640625 0l0 1.1875l-11.218758 0l0 -0.375l-1.84375 0l0 6.015625q1.40625 -0.375 2.296875 -0.59375l0 1.40625zm5.4843826 0l-1.546875 0q-0.15625 4.171875 -5.5000076 4.390625l-0.375 -1.484375q4.4531326 -0.15625 4.3906326 -2.90625l-0.828125 0l-0.8125076 0l0 -5.484375l8.312508 0l0 5.484375l-2.15625 0l0 2.234375q0 0.515625 0.671875 0.515625l0.8125 0q0.296875 0 0.453125 -0.4375l0.296875 -0.890625l1.5625 0.4375l-0.453125 1.265625q-0.375 1.046875 -1.703125 1.046875l-1.703125 0q-1.421875 0 -1.421875 -1.421875l0 -2.75zm-2.078125 -9.5l0.828125 1.859375l1.25 0l0.671875 -1.859375l-2.75 0zm-1.109375 7.203125l0 1.109375l5.34375 0l0 -1.109375l-5.34375 0zm0 -2.0l0 1.109375l5.34375 0l0 -1.109375l-5.34375 0zm19.671875 -6.390625l7.046875 0l0 3.859375l-1.484375 0l0 -2.4375l-12.546875 0l0 2.4375l-1.484375 0l0 -3.859375l6.765625 0l0 -1.78125l1.625 0q0.75 0.15625 0.078125 0.59375l0 1.1875zm-6.015625 3.265625l10.46875 0l0 1.421875l-10.46875 0l0 -1.421875zm-2.8125 3.34375l16.171875 0l0 1.40625l-5.421875 0l0 4.609375q0 0.59375 0.53125 0.59375l2.515625 0q0.75 0 0.8125 -0.75l0.15625 -1.25l1.703125 0.359375l-0.375 1.859375q-0.296875 1.421875 -2.0 1.421875l-3.703125 0q-1.34375 0 -1.34375 -1.265625l0 -5.578125l-2.375 0l0 1.1875q0 4.6875 -6.15625 6.015625l-0.59375 -1.703125q5.046875 -0.8125 5.046875 -4.375l0 -1.125l-4.96875 0l0 -1.40625zm30.28125 2.15625q1.25 -1.9375 2.21875 -4.75l1.40625 0.8125q0.53125 0.296875 -0.140625 0.453125q-1.109375 2.734375 -2.671875 5.109375q1.625 2.3125 2.453125 2.3125q0.65625 0 0.890625 -1.78125l1.40625 0.734375q-0.59375 2.96875 -1.640625 2.96875q-2.078125 0 -4.15625 -3.1875q-2.078125 2.296875 -4.8125 3.640625l-0.890625 -1.40625q3.484375 -1.71875 4.890625 -3.640625q-1.03125 -2.53125 -1.03125 -6.6875l0 -0.671875l-6.3125 0l0 2.609375l4.75 0l-0.15625 5.046875q-0.0625 1.40625 -1.109375 1.40625l-1.921875 0l-0.234375 -1.40625l1.265625 0q0.59375 0 0.59375 -0.59375l0.15625 -3.046875l-3.34375 0l0 2.15625q0 3.703125 -1.859375 6.078125l-1.265625 -1.03125q1.640625 -2.015625 1.640625 -4.828125l0 -7.796875l7.796875 0l0 -3.1875l1.40625 0q0.59375 0.078125 0.078125 0.4375l0 2.75l5.640625 0l0 1.40625l-5.640625 0l0 0.671875q0 3.484375 0.59375 5.421875zm1.1875 -10.46875q1.1875 0.59375 2.078125 1.484375l-1.125 1.109375q-0.734375 -0.8125 -2.0 -1.546875l1.046875 -1.046875z" fill-rule="nonzero"></path><path fill="#000000" d="m181.6184 102.95149l0 -12.0l-4.46875 0l0 -1.59375l10.765625 0l0 1.59375l-4.5 0l0 12.0l-1.796875 0zm7.942856 0l0 -13.59375l4.6875 0q1.578125 0 2.421875 0.1875q1.15625 0.265625 1.984375 0.96875q1.078125 0.921875 1.609375 2.34375q0.53125 1.40625 0.53125 3.21875q0 1.546875 -0.359375 2.75q-0.359375 1.1875 -0.921875 1.984375q-0.5625 0.78125 -1.234375 1.234375q-0.671875 0.4375 -1.625 0.671875q-0.953125 0.234375 -2.1875 0.234375l-4.90625 0zm1.796875 -1.609375l2.90625 0q1.34375 0 2.109375 -0.25q0.765625 -0.25 1.21875 -0.703125q0.640625 -0.640625 1.0 -1.71875q0.359375 -1.078125 0.359375 -2.625q0 -2.125 -0.703125 -3.265625q-0.703125 -1.15625 -1.703125 -1.546875q-0.71875 -0.28125 -2.328125 -0.28125l-2.859375 0l0 10.390625zm11.676071 1.609375l0 -13.59375l4.6875 0q1.578125 0 2.421875 0.1875q1.15625 0.265625 1.984375 0.96875q1.078125 0.921875 1.609375 2.34375q0.53125 1.40625 0.53125 3.21875q0 1.546875 -0.359375 2.75q-0.359375 1.1875 -0.921875 1.984375q-0.5625 0.78125 -1.234375 1.234375q-0.671875 0.4375 -1.625 0.671875q-0.953125 0.234375 -2.1875 0.234375l-4.90625 0zm1.796875 -1.609375l2.90625 0q1.34375 0 2.109375 -0.25q0.765625 -0.25 1.21875 -0.703125q0.640625 -0.640625 1.0 -1.71875q0.359375 -1.078125 0.359375 -2.625q0 -2.125 -0.703125 -3.265625q-0.703125 -1.15625 -1.703125 -1.546875q-0.71875 -0.28125 -2.328125 -0.28125l-2.859375 0l0 10.390625z" fill-rule="nonzero"></path><path fill="#ffd966" d="m13.146981 185.55118l232.44093 0l0 65.921265l-232.44093 0z" fill-rule="nonzero"></path><path stroke="#000000" stroke-width="2.0" stroke-linejoin="round" stroke-linecap="butt" d="m13.146981 185.55118l232.44093 0l0 65.921265l-232.44093 0z" fill-rule="nonzero"></path><path fill="#000000" d="m71.04266 225.43181l0 -13.59375l5.125 0q1.359375 0 2.078125 0.125q1.0 0.171875 1.671875 0.640625q0.671875 0.46875 1.078125 1.3125q0.421875 0.84375 0.421875 1.84375q0 1.734375 -1.109375 2.9375q-1.09375 1.203125 -3.984375 1.203125l-3.484375 0l0 5.53125l-1.796875 0zm1.796875 -7.140625l3.515625 0q1.75 0 2.46875 -0.640625q0.734375 -0.65625 0.734375 -1.828125q0 -0.859375 -0.4375 -1.46875q-0.421875 -0.609375 -1.125 -0.796875q-0.453125 -0.125 -1.671875 -0.125l-3.484375 0l0 4.859375zm16.881073 7.140625l0 -1.453125q-1.140625 1.671875 -3.125 1.671875q-0.859375 0 -1.625 -0.328125q-0.75 -0.34375 -1.125 -0.84375q-0.359375 -0.5 -0.515625 -1.234375q-0.09375 -0.5 -0.09375 -1.5625l0 -6.109375l1.671875 0l0 5.46875q0 1.3125 0.09375 1.765625q0.15625 0.65625 0.671875 1.03125q0.515625 0.375 1.265625 0.375q0.75 0 1.40625 -0.375q0.65625 -0.390625 0.921875 -1.046875q0.28125 -0.671875 0.28125 -1.9375l0 -5.28125l1.671875 0l0 9.859375l-1.5 0zm3.2507172 -2.9375l1.65625 -0.265625q0.140625 1.0 0.765625 1.53125q0.640625 0.515625 1.78125 0.515625q1.15625 0 1.703125 -0.46875q0.5625 -0.46875 0.5625 -1.09375q0 -0.5625 -0.484375 -0.890625q-0.34375 -0.21875 -1.703125 -0.5625q-1.84375 -0.46875 -2.5625 -0.796875q-0.703125 -0.34375 -1.078125 -0.9375q-0.359375 -0.609375 -0.359375 -1.328125q0 -0.65625 0.296875 -1.21875q0.3125 -0.5625 0.828125 -0.9375q0.390625 -0.28125 1.0625 -0.484375q0.671875 -0.203125 1.4375 -0.203125q1.171875 0 2.046875 0.34375q0.875 0.328125 1.28125 0.90625q0.421875 0.5625 0.578125 1.515625l-1.625 0.21875q-0.109375 -0.75 -0.65625 -1.171875q-0.53125 -0.4375 -1.5 -0.4375q-1.15625 0 -1.640625 0.390625q-0.484375 0.375 -0.484375 0.875q0 0.328125 0.203125 0.59375q0.203125 0.265625 0.640625 0.4375q0.25 0.09375 1.46875 0.4375q1.765625 0.46875 2.46875 0.765625q0.703125 0.296875 1.09375 0.875q0.40625 0.578125 0.40625 1.4375q0 0.828125 -0.484375 1.578125q-0.484375 0.734375 -1.40625 1.140625q-0.921875 0.390625 -2.078125 0.390625q-1.921875 0 -2.9375 -0.796875q-1.0 -0.796875 -1.28125 -2.359375zm10.0 2.9375l0 -13.59375l1.671875 0l0 4.875q1.171875 -1.359375 2.953125 -1.359375q1.09375 0 1.890625 0.4375q0.8125 0.421875 1.15625 1.1875q0.359375 0.765625 0.359375 2.203125l0 6.25l-1.671875 0l0 -6.25q0 -1.25 -0.546875 -1.8125q-0.546875 -0.578125 -1.53125 -0.578125q-0.75 0 -1.40625 0.390625q-0.640625 0.375 -0.921875 1.046875q-0.28125 0.65625 -0.28125 1.8125l0 5.390625l-1.671875 0z" fill-rule="nonzero"></path><path fill="#000000" d="m129.23767 210.72868q0.59375 0.078125 0.078125 0.453125l0 14.46875q0 1.1875 -1.1875 1.1875l-1.484375 0l-0.21875 -1.40625l1.109375 0q0.296875 0 0.296875 -0.296875l0 -14.40625l1.40625 0zm-4.890625 12.46875l0 -10.75l1.40625 0q0.59375 0.0625 0.078125 0.4375l0 10.3125l-1.484375 0zm-10.25 -2.96875l3.421875 0l0 -2.140625l1.40625 0q0.59375 0.0625 0.078125 0.4375l0 1.703125l3.484375 0l0 1.421875l-3.484375 0l0 2.59375l4.0 -0.59375l0.234375 1.265625l-8.90625 1.625q-0.078125 0.53125 -0.375 0.234375l-0.59375 -1.796875l4.15625 -0.515625l0 -2.8125l-3.421875 0l0 -1.421875zm0.234375 -2.375q-0.078125 0.53125 -0.375 0.234375l-0.453125 -1.78125l1.9375 -0.078125l1.40625 -3.71875l-3.265625 0l0 -1.40625l9.359375 0l0 1.40625l-4.390625 0l-1.625 3.640625l3.5625 -0.296875q-0.515625 -0.734375 -1.40625 -1.625l1.1875 -0.828125q1.78125 1.640625 2.890625 3.5625l-1.34375 0.96875l-0.59375 -0.890625l-6.890625 0.8125z" fill-rule="nonzero"></path><path fill="#000000" d="m138.92517 220.10368l0 -1.609375l5.7656403 0l0 5.046875q-1.328125 1.0625 -2.75 1.59375q-1.4062653 0.53125 -2.8906403 0.53125q-2.0 0 -3.640625 -0.859375q-1.625 -0.859375 -2.46875 -2.484375q-0.828125 -1.625 -0.828125 -3.625q0 -1.984375 0.828125 -3.703125q0.828125 -1.71875 2.390625 -2.546875q1.5625 -0.84375 3.59375 -0.84375q1.46875 0 2.6562653 0.484375q1.203125 0.46875 1.875 1.328125q0.671875 0.84375 1.03125 2.21875l-1.625 0.4375q-0.3125 -1.03125 -0.765625 -1.625q-0.453125 -0.59375 -1.2968903 -0.953125q-0.84375 -0.359375 -1.875 -0.359375q-1.234375 0 -2.140625 0.375q-0.890625 0.375 -1.453125 1.0q-0.546875 0.609375 -0.84375 1.34375q-0.53125 1.25 -0.53125 2.734375q0 1.8125 0.625 3.046875q0.640625 1.21875 1.828125 1.8125q1.203125 0.59375 2.546875 0.59375q1.171875 0 2.2812653 -0.453125q1.109375 -0.453125 1.6875 -0.953125l0 -2.53125l-4.0000153 0zm7.948929 -6.359375l0 -1.90625l1.671875 0l0 1.90625l-1.671875 0zm0 11.6875l0 -9.859375l1.671875 0l0 9.859375l-1.671875 0zm7.7854614 -1.5l0.234375 1.484375q-0.703125 0.140625 -1.265625 0.140625q-0.90625 0 -1.40625 -0.28125q-0.5 -0.296875 -0.703125 -0.75q-0.203125 -0.46875 -0.203125 -1.984375l0 -5.65625l-1.234375 0l0 -1.3125l1.234375 0l0 -2.4375l1.65625 -1.0l0 3.4375l1.6875 0l0 1.3125l-1.6875 0l0 5.75q0 0.71875 0.078125 0.921875q0.09375 0.203125 0.296875 0.328125q0.203125 0.125 0.578125 0.125q0.265625 0 0.734375 -0.078125zm1.7926636 1.5l0 -13.59375l1.8125 0l0 5.578125l7.0625 0l0 -5.578125l1.796875 0l0 13.59375l-1.796875 0l0 -6.40625l-7.0625 0l0 6.40625l-1.8125 0zm19.660461 0l0 -1.453125q-1.140625 1.671875 -3.125 1.671875q-0.859375 0 -1.625 -0.328125q-0.75 -0.34375 -1.125 -0.84375q-0.359375 -0.5 -0.515625 -1.234375q-0.09375 -0.5 -0.09375 -1.5625l0 -6.109375l1.671875 0l0 5.46875q0 1.3125 0.09375 1.765625q0.15625 0.65625 0.671875 1.03125q0.515625 0.375 1.265625 0.375q0.75 0 1.40625 -0.375q0.65625 -0.390625 0.921875 -1.046875q0.28125 -0.671875 0.28125 -1.9375l0 -5.28125l1.671875 0l0 9.859375l-1.5 0zm5.469452 0l-1.546875 0l0 -13.59375l1.65625 0l0 4.84375q1.0625 -1.328125 2.703125 -1.328125q0.90625 0 1.71875 0.375q0.8125 0.359375 1.328125 1.03125q0.53125 0.65625 0.828125 1.59375q0.296875 0.9375 0.296875 2.0q0 2.53125 -1.25 3.921875q-1.25 1.375 -3.0 1.375q-1.75 0 -2.734375 -1.453125l0 1.234375zm-0.015625 -5.0q0 1.765625 0.46875 2.5625q0.796875 1.28125 2.140625 1.28125q1.09375 0 1.890625 -0.9375q0.796875 -0.953125 0.796875 -2.84375q0 -1.921875 -0.765625 -2.84375q-0.765625 -0.921875 -1.84375 -0.921875q-1.09375 0 -1.890625 0.953125q-0.796875 0.953125 -0.796875 2.75z" fill-rule="nonzero"></path><path fill="#000000" fill-opacity="0.0" d="m129.36745 128.99213l0 56.566925" fill-rule="nonzero"></path><path stroke="#000000" stroke-width="2.0" stroke-linejoin="round" stroke-linecap="butt" d="m129.36745 128.99213l0 44.566925" fill-rule="evenodd"></path><path fill="#000000" stroke="#000000" stroke-width="2.0" stroke-linecap="butt" d="m126.06399 173.55905l3.3034592 9.076202l3.3034668 -9.076202z" fill-rule="evenodd"></path><path fill="#cfe2f3" d="m626.38184 185.55118l292.4095 0l0 65.921265l-292.4095 0z" fill-rule="nonzero"></path><path stroke="#000000" stroke-width="2.0" stroke-linejoin="round" stroke-linecap="butt" d="m626.38184 185.55118l292.4095 0l0 65.921265l-292.4095 0z" fill-rule="nonzero"></path><path fill="#000000" d="m713.14624 216.44743l0 -2.453125l-9.359375 0l0 2.453125l9.359375 0zm0 1.40625l-9.359375 0l0 2.53125l9.359375 0l0 -2.53125zm0 6.6875l0 -2.75l-9.359375 0l0 2.75l9.359375 0zm-6.234375 -11.953125l0.671875 -2.59375l1.78125 0.375q0.296875 0.296875 -0.234375 0.359375l-0.8125 1.859375l6.3125 0l0 14.03125l-1.484375 0l0 -0.671875l-9.359375 0l0 0.890625l-1.484375 0l0 -14.25l4.609375 0zm19.671875 13.21875q0.734375 -0.375 1.546875 -1.125l-8.3125 1.5625q-0.0625 0.53125 -0.359375 0.234375l-0.453125 -1.640625l4.3125 -0.515625l0 -1.34375l-3.5 0l0 -1.1875l3.5 0l0 -1.109375l-1.71875 0l-1.625 0l0 -5.265625l3.34375 0l0 -1.046875l-4.3125 0l0 -1.1875l4.3125 0l0 -0.890625q-1.859375 0.078125 -3.71875 0.15625l-0.21875 -1.265625q3.640625 0 7.796875 -0.8125l0.65625 1.25q0.234375 0.453125 -0.4375 0.15625q-1.5625 0.21875 -2.828125 0.375l0 1.03125l4.09375 0l0 1.1875l-4.09375 0l0 1.046875l3.421875 0l0 5.265625l-3.421875 0l0 1.109375l3.71875 0l0 1.1875l-3.71875 0l0 1.109375l3.71875 -0.59375l0 1.046875q2.15625 -1.9375 2.21875 -5.859375l0.078125 -2.90625l-1.78125 0l0 -1.40625l1.78125 0l0 -3.78125l1.40625 0q0.59375 0.078125 0.078125 0.4375l0 3.34375l3.265625 0l-0.140625 9.796875q-0.078125 2.671875 -1.9375 2.671875l-2.0 0l-0.21875 -1.40625l1.703125 0q0.890625 0 0.96875 -1.5625l0.21875 -8.09375l-1.859375 0l-0.078125 3.5q-0.0625 5.109375 -4.515625 7.9375l-0.890625 -1.40625zm-2.015625 -7.359375l0 1.34375l2.15625 0l0 -1.34375l-2.15625 0zm0 -2.140625l0 1.25l2.15625 0l0 -1.25l-2.15625 0zm-3.328125 2.140625l0 1.34375l2.078125 0l0 -1.34375l-2.078125 0zm0 -2.140625l0 1.25l2.078125 0l0 -1.25l-2.078125 0zm33.984375 6.890625q-0.140625 3.578125 -1.484375 3.578125q-0.671875 0 -1.1875 -1.046875q-1.03125 -2.078125 -1.03125 -5.125l0 -5.34375l-1.71875 0l0 1.9375q0 1.1875 -0.140625 2.8125q0.890625 0.890625 1.703125 1.9375l-0.890625 1.40625q-0.890625 -1.265625 -1.265625 -1.640625q-1.1875 3.5625 -4.15625 5.203125l-0.8125 -1.40625q2.96875 -1.5625 3.78125 -5.125q-0.734375 -0.75 -1.703125 -1.703125l0.75 -1.265625q0.59375 0.59375 1.1875 1.1875q0.0625 -0.75 0.0625 -1.703125l0 -1.640625l-1.84375 0l0 -1.40625l1.84375 0l0 -3.34375l1.421875 0q0.59375 0.078125 0.0625 0.453125l0 2.890625l3.203125 0l0 6.90625q0 1.703125 0.296875 2.671875q0.21875 0.8125 0.359375 0.8125q0.234375 0 0.234375 -1.859375l1.328125 0.8125zm-14.03125 -13.0625l1.421875 0q0.59375 0.078125 0.0625 0.453125l0 1.484375l2.375 0l0 1.40625l-2.375 0l0 1.703125l3.34375 0l0 1.421875l-1.484375 0l-0.734375 2.21875l1.78125 0l0 1.40625l-2.90625 0l0 1.71875l2.53125 0l0 1.40625l-2.53125 0l0 3.78125l-1.484375 0l0 -3.78125l-2.59375 0l0 -1.40625l2.59375 0l0 -1.71875l-2.96875 0l0 -1.40625l1.859375 0l-0.8125 -2.21875l-1.640625 0l0 -1.421875l3.5625 0l0 -1.703125l-2.59375 0l0 -1.40625l2.59375 0l0 -1.9375zm0.234375 8.6875l1.109375 0l0.671875 -2.21875l-2.609375 0l0.828125 2.21875zm21.078125 -7.046875q-2.3125 2.8125 -4.234375 3.9375l-0.890625 -1.34375q2.078125 -1.1875 4.15625 -3.9375l1.109375 0.96875q0.375 0.453125 -0.140625 0.375zm-1.046875 15.21875l-1.484375 0l0 -7.875q-0.734375 0.8125 -2.21875 1.78125l-0.96875 -1.484375q3.1875 -1.921875 5.421875 -5.421875l1.1875 0.96875q0.359375 0.453125 -0.15625 0.375q-0.890625 1.1875 -1.78125 2.296875l0 9.359375zm10.84375 -15.59375l0 1.40625l-8.015625 0l0 -1.40625l8.015625 0zm-8.84375 6.15625l0 -1.40625l10.328125 0l0 1.40625l-3.125 0l0 7.578125q0 1.5625 -1.265625 1.5625l-2.0 0l-0.296875 -1.421875l1.78125 0q0.296875 0 0.296875 -0.296875l0 -7.421875l-5.71875 0z" fill-rule="nonzero"></path><path fill="#000000" d="m776.28687 225.43181l0 -13.59375l5.125 0q1.359375 0 2.078125 0.125q1.0 0.171875 1.671875 0.640625q0.671875 0.46875 1.078125 1.3125q0.421875 0.84375 0.421875 1.84375q0 1.734375 -1.109375 2.9375q-1.09375 1.203125 -3.984375 1.203125l-3.484375 0l0 5.53125l-1.796875 0zm1.796875 -7.140625l3.515625 0q1.75 0 2.46875 -0.640625q0.734375 -0.65625 0.734375 -1.828125q0 -0.859375 -0.4375 -1.46875q-0.421875 -0.609375 -1.125 -0.796875q-0.453125 -0.125 -1.671875 -0.125l-3.484375 0l0 4.859375zm10.6936035 7.140625l0 -13.59375l1.8125 0l0 5.578125l7.0625 0l0 -5.578125l1.796875 0l0 13.59375l-1.796875 0l0 -6.40625l-7.0625 0l0 6.40625l-1.8125 0zm13.426025 0l0 -13.59375l5.125 0q1.359375 0 2.078125 0.125q1.0 0.171875 1.671875 0.640625q0.671875 0.46875 1.078125 1.3125q0.421875 0.84375 0.421875 1.84375q0 1.734375 -1.109375 2.9375q-1.09375 1.203125 -3.984375 1.203125l-3.484375 0l0 5.53125l-1.796875 0zm1.796875 -7.140625l3.515625 0q1.75 0 2.46875 -0.640625q0.734375 -0.65625 0.734375 -1.828125q0 -0.859375 -0.4375 -1.46875q-0.421875 -0.609375 -1.125 -0.796875q-0.453125 -0.125 -1.671875 -0.125l-3.484375 0l0 4.859375zm19.568604 -6.453125l1.796875 0l0 7.84375q0 2.0625 -0.46875 3.265625q-0.453125 1.203125 -1.671875 1.96875q-1.203125 0.75 -3.171875 0.75q-1.90625 0 -3.125 -0.65625q-1.21875 -0.65625 -1.734375 -1.90625q-0.515625 -1.25 -0.515625 -3.421875l0 -7.84375l1.796875 0l0 7.84375q0 1.765625 0.328125 2.609375q0.328125 0.84375 1.125 1.296875q0.8125 0.453125 1.96875 0.453125q1.984375 0 2.828125 -0.890625q0.84375 -0.90625 0.84375 -3.46875l0 -7.84375zm4.3323364 13.59375l0 -9.859375l1.5 0l0 1.40625q1.09375 -1.625 3.140625 -1.625q0.890625 0 1.640625 0.328125q0.75 0.3125 1.109375 0.84375q0.375 0.515625 0.53125 1.21875q0.09375 0.46875 0.09375 1.625l0 6.0625l-1.671875 0l0 -6.0q0 -1.015625 -0.203125 -1.515625q-0.1875 -0.515625 -0.6875 -0.8125q-0.5 -0.296875 -1.171875 -0.296875q-1.0625 0 -1.84375 0.671875q-0.765625 0.671875 -0.765625 2.578125l0 5.375l-1.671875 0zm10.391296 -11.6875l0 -1.90625l1.671875 0l0 1.90625l-1.671875 0zm0 11.6875l0 -9.859375l1.671875 0l0 9.859375l-1.671875 0zm7.7854614 -1.5l0.234375 1.484375q-0.703125 0.140625 -1.265625 0.140625q-0.90625 0 -1.40625 -0.28125q-0.5 -0.296875 -0.703125 -0.75q-0.203125 -0.46875 -0.203125 -1.984375l0 -5.65625l-1.234375 0l0 -1.3125l1.234375 0l0 -2.4375l1.65625 -1.0l0 3.4375l1.6875 0l0 1.3125l-1.6875 0l0 5.75q0 0.71875 0.078125 0.921875q0.09375 0.203125 0.296875 0.328125q0.203125 0.125 0.578125 0.125q0.265625 0 0.734375 -0.078125z" fill-rule="nonzero"></path><path fill="#cfe2f3" d="m626.38184 306.44882l292.4095 0l0 65.921265l-292.4095 0z" fill-rule="nonzero"></path><path stroke="#000000" stroke-width="2.0" stroke-linejoin="round" stroke-linecap="butt" d="m626.38184 306.44882l292.4095 0l0 65.921265l-292.4095 0z" fill-rule="nonzero"></path><path fill="#000000" d="m680.8188 337.34506l0 -2.453125l-9.359375 0l0 2.453125l9.359375 0zm0 1.40625l-9.359375 0l0 2.53125l9.359375 0l0 -2.53125zm0 6.6875l0 -2.75l-9.359375 0l0 2.75l9.359375 0zm-6.234375 -11.953125l0.671875 -2.59375l1.78125 0.375q0.296875 0.296875 -0.234375 0.359375l-0.8125 1.859375l6.3125 0l0 14.03125l-1.484375 0l0 -0.671875l-9.359375 0l0 0.890625l-1.484375 0l0 -14.25l4.609375 0zm19.671875 13.21875q0.734375 -0.375 1.546875 -1.125l-8.3125 1.5625q-0.0625 0.53125 -0.359375 0.234375l-0.453125 -1.640625l4.3125 -0.515625l0 -1.34375l-3.5 0l0 -1.1875l3.5 0l0 -1.109375l-1.71875 0l-1.625 0l0 -5.265625l3.34375 0l0 -1.046875l-4.3125 0l0 -1.1875l4.3125 0l0 -0.890625q-1.859375 0.078125 -3.71875 0.15625l-0.21875 -1.265625q3.640625 0 7.796875 -0.8125l0.65625 1.25q0.234375 0.453125 -0.4375 0.15625q-1.5625 0.21875 -2.828125 0.375l0 1.03125l4.09375 0l0 1.1875l-4.09375 0l0 1.046875l3.421875 0l0 5.265625l-3.421875 0l0 1.109375l3.71875 0l0 1.1875l-3.71875 0l0 1.109375l3.71875 -0.59375l0 1.046875q2.15625 -1.9375 2.21875 -5.859375l0.078125 -2.90625l-1.78125 0l0 -1.40625l1.78125 0l0 -3.78125l1.40625 0q0.59375 0.078125 0.078125 0.4375l0 3.34375l3.265625 0l-0.140625 9.796875q-0.078125 2.671875 -1.9375 2.671875l-2.0 0l-0.21875 -1.40625l1.703125 0q0.890625 0 0.96875 -1.5625l0.21875 -8.09375l-1.859375 0l-0.078125 3.5q-0.0625 5.109375 -4.515625 7.9375l-0.890625 -1.40625zm-2.015625 -7.359375l0 1.34375l2.15625 0l0 -1.34375l-2.15625 0zm0 -2.140625l0 1.25l2.15625 0l0 -1.25l-2.15625 0zm-3.328125 2.140625l0 1.34375l2.078125 0l0 -1.34375l-2.078125 0zm0 -2.140625l0 1.25l2.078125 0l0 -1.25l-2.078125 0z" fill-rule="nonzero"></path><path fill="#000000" d="m705.99066 346.32944l0 -13.59375l9.84375 0l0 1.59375l-8.046875 0l0 4.171875l7.53125 0l0 1.59375l-7.53125 0l0 4.625l8.359375 0l0 1.609375l-10.15625 0zm12.1936035 0l0 -9.859375l1.5 0l0 1.390625q0.453125 -0.71875 1.21875 -1.15625q0.78125 -0.453125 1.765625 -0.453125q1.09375 0 1.796875 0.453125q0.703125 0.453125 0.984375 1.28125q1.171875 -1.734375 3.046875 -1.734375q1.46875 0 2.25 0.8125q0.796875 0.8125 0.796875 2.5l0 6.765625l-1.671875 0l0 -6.203125q0 -1.0 -0.15625 -1.4375q-0.15625 -0.453125 -0.59375 -0.71875q-0.421875 -0.265625 -1.0 -0.265625q-1.03125 0 -1.71875 0.6875q-0.6875 0.6875 -0.6875 2.21875l0 5.71875l-1.671875 0l0 -6.40625q0 -1.109375 -0.40625 -1.65625q-0.40625 -0.5625 -1.34375 -0.5625q-0.703125 0 -1.3125 0.375q-0.59375 0.359375 -0.859375 1.078125q-0.265625 0.71875 -0.265625 2.0625l0 5.109375l-1.671875 0zm21.978271 -1.21875q-0.9375 0.796875 -1.796875 1.125q-0.859375 0.3125 -1.84375 0.3125q-1.609375 0 -2.484375 -0.78125q-0.875 -0.796875 -0.875 -2.03125q0 -0.734375 0.328125 -1.328125q0.328125 -0.59375 0.859375 -0.953125q0.53125 -0.359375 1.203125 -0.546875q0.5 -0.140625 1.484375 -0.25q2.03125 -0.25 2.984375 -0.578125q0 -0.34375 0 -0.4375q0 -1.015625 -0.46875 -1.4375q-0.640625 -0.5625 -1.90625 -0.5625q-1.171875 0 -1.734375 0.40625q-0.5625 0.40625 -0.828125 1.46875l-1.640625 -0.234375q0.234375 -1.046875 0.734375 -1.6875q0.515625 -0.640625 1.46875 -0.984375q0.96875 -0.359375 2.25 -0.359375q1.265625 0 2.046875 0.296875q0.78125 0.296875 1.15625 0.75q0.375 0.453125 0.515625 1.140625q0.09375 0.421875 0.09375 1.53125l0 2.234375q0 2.328125 0.09375 2.953125q0.109375 0.609375 0.4375 1.171875l-1.75 0q-0.265625 -0.515625 -0.328125 -1.21875zm-0.140625 -3.71875q-0.90625 0.359375 -2.734375 0.625q-1.03125 0.140625 -1.453125 0.328125q-0.421875 0.1875 -0.65625 0.546875q-0.234375 0.359375 -0.234375 0.796875q0 0.671875 0.5 1.125q0.515625 0.4375 1.484375 0.4375q0.96875 0 1.71875 -0.421875q0.75 -0.4375 1.109375 -1.15625q0.265625 -0.578125 0.265625 -1.671875l0 -0.609375zm4.0944824 -6.75l0 -1.90625l1.671875 0l0 1.90625l-1.671875 0zm0 11.6875l0 -9.859375l1.671875 0l0 9.859375l-1.671875 0zm4.0979614 0l0 -13.59375l1.671875 0l0 13.59375l-1.671875 0zm13.03125 0l0 -12.0l-4.46875 0l0 -1.59375l10.765625 0l0 1.59375l-4.5 0l0 12.0l-1.796875 0zm14.47406 -3.171875l1.71875 0.21875q-0.40625 1.5 -1.515625 2.34375q-1.09375 0.828125 -2.8125 0.828125q-2.15625 0 -3.421875 -1.328125q-1.265625 -1.328125 -1.265625 -3.734375q0 -2.484375 1.265625 -3.859375q1.28125 -1.375 3.328125 -1.375q1.984375 0 3.234375 1.34375q1.25 1.34375 1.25 3.796875q0 0.140625 -0.015625 0.4375l-7.34375 0q0.09375 1.625 0.921875 2.484375q0.828125 0.859375 2.0625 0.859375q0.90625 0 1.546875 -0.46875q0.65625 -0.484375 1.046875 -1.546875zm-5.484375 -2.703125l5.5 0q-0.109375 -1.234375 -0.625 -1.859375q-0.796875 -0.96875 -2.078125 -0.96875q-1.140625 0 -1.9375 0.78125q-0.78125 0.765625 -0.859375 2.046875zm8.438232 2.9375l1.65625 -0.265625q0.140625 1.0 0.765625 1.53125q0.640625 0.515625 1.78125 0.515625q1.15625 0 1.703125 -0.46875q0.5625 -0.46875 0.5625 -1.09375q0 -0.5625 -0.484375 -0.890625q-0.34375 -0.21875 -1.703125 -0.5625q-1.84375 -0.46875 -2.5625 -0.796875q-0.703125 -0.34375 -1.078125 -0.9375q-0.359375 -0.609375 -0.359375 -1.328125q0 -0.65625 0.296875 -1.21875q0.3125 -0.5625 0.828125 -0.9375q0.390625 -0.28125 1.0625 -0.484375q0.671875 -0.203125 1.4375 -0.203125q1.171875 0 2.046875 0.34375q0.875 0.328125 1.28125 0.90625q0.421875 0.5625 0.578125 1.515625l-1.625 0.21875q-0.109375 -0.75 -0.65625 -1.171875q-0.53125 -0.4375 -1.5 -0.4375q-1.15625 0 -1.640625 0.390625q-0.484375 0.375 -0.484375 0.875q0 0.328125 0.203125 0.59375q0.203125 0.265625 0.640625 0.4375q0.25 0.09375 1.46875 0.4375q1.765625 0.46875 2.46875 0.765625q0.703125 0.296875 1.09375 0.875q0.40625 0.578125 0.40625 1.4375q0 0.828125 -0.484375 1.578125q-0.484375 0.734375 -1.40625 1.140625q-0.921875 0.390625 -2.078125 0.390625q-1.921875 0 -2.9375 -0.796875q-1.0 -0.796875 -1.28125 -2.359375zm13.65625 1.4375l0.234375 1.484375q-0.703125 0.140625 -1.265625 0.140625q-0.90625 0 -1.40625 -0.28125q-0.5 -0.296875 -0.703125 -0.75q-0.203125 -0.46875 -0.203125 -1.984375l0 -5.65625l-1.234375 0l0 -1.3125l1.234375 0l0 -2.4375l1.65625 -1.0l0 3.4375l1.6875 0l0 1.3125l-1.6875 0l0 5.75q0 0.71875 0.078125 0.921875q0.09375 0.203125 0.296875 0.328125q0.203125 0.125 0.578125 0.125q0.265625 0 0.734375 -0.078125zm1.5426636 -10.1875l0 -1.90625l1.671875 0l0 1.90625l-1.671875 0zm0 11.6875l0 -9.859375l1.671875 0l0 9.859375l-1.671875 0zm4.1292114 0l0 -9.859375l1.5 0l0 1.40625q1.09375 -1.625 3.140625 -1.625q0.890625 0 1.640625 0.328125q0.75 0.3125 1.109375 0.84375q0.375 0.515625 0.53125 1.21875q0.09375 0.46875 0.09375 1.625l0 6.0625l-1.671875 0l0 -6.0q0 -1.015625 -0.203125 -1.515625q-0.1875 -0.515625 -0.6875 -0.8125q-0.5 -0.296875 -1.171875 -0.296875q-1.0625 0 -1.84375 0.671875q-0.765625 0.671875 -0.765625 2.578125l0 5.375l-1.671875 0zm10.078857 0.8125l1.609375 0.25q0.109375 0.75 0.578125 1.09375q0.609375 0.453125 1.6875 0.453125q1.171875 0 1.796875 -0.46875q0.625 -0.453125 0.859375 -1.28125q0.125 -0.515625 0.109375 -2.15625q-1.09375 1.296875 -2.71875 1.296875q-2.03125 0 -3.15625 -1.46875q-1.109375 -1.46875 -1.109375 -3.515625q0 -1.40625 0.515625 -2.59375q0.515625 -1.203125 1.484375 -1.84375q0.96875 -0.65625 2.265625 -0.65625q1.75 0 2.875 1.40625l0 -1.1875l1.546875 0l0 8.515625q0 2.3125 -0.46875 3.265625q-0.46875 0.96875 -1.484375 1.515625q-1.015625 0.5625 -2.5 0.5625q-1.765625 0 -2.859375 -0.796875q-1.078125 -0.796875 -1.03125 -2.390625zm1.375 -5.921875q0 1.953125 0.765625 2.84375q0.78125 0.890625 1.9375 0.890625q1.140625 0 1.921875 -0.890625q0.78125 -0.890625 0.78125 -2.78125q0 -1.8125 -0.8125 -2.71875q-0.796875 -0.921875 -1.921875 -0.921875q-1.109375 0 -1.890625 0.90625q-0.78125 0.890625 -0.78125 2.671875zm14.730896 5.109375l0 -13.59375l6.03125 0q1.8125 0 2.75 0.359375q0.953125 0.359375 1.515625 1.296875q0.5625 0.921875 0.5625 2.046875q0 1.453125 -0.9375 2.453125q-0.921875 0.984375 -2.890625 1.25q0.71875 0.34375 1.09375 0.671875q0.78125 0.734375 1.484375 1.8125l2.375 3.703125l-2.265625 0l-1.796875 -2.828125q-0.796875 -1.21875 -1.3125 -1.875q-0.5 -0.65625 -0.90625 -0.90625q-0.40625 -0.265625 -0.8125 -0.359375q-0.3125 -0.078125 -1.015625 -0.078125l-2.078125 0l0 6.046875l-1.796875 0zm1.796875 -7.59375l3.859375 0q1.234375 0 1.921875 -0.25q0.703125 -0.265625 1.0625 -0.828125q0.375 -0.5625 0.375 -1.21875q0 -0.96875 -0.703125 -1.578125q-0.703125 -0.625 -2.21875 -0.625l-4.296875 0l0 4.5zm18.176086 4.421875l1.71875 0.21875q-0.40625 1.5 -1.515625 2.34375q-1.09375 0.828125 -2.8125 0.828125q-2.15625 0 -3.421875 -1.328125q-1.265625 -1.328125 -1.265625 -3.734375q0 -2.484375 1.265625 -3.859375q1.28125 -1.375 3.328125 -1.375q1.984375 0 3.234375 1.34375q1.25 1.34375 1.25 3.796875q0 0.140625 -0.015625 0.4375l-7.34375 0q0.09375 1.625 0.921875 2.484375q0.828125 0.859375 2.0625 0.859375q0.90625 0 1.546875 -0.46875q0.65625 -0.484375 1.046875 -1.546875zm-5.484375 -2.703125l5.5 0q-0.109375 -1.234375 -0.625 -1.859375q-0.796875 -0.96875 -2.078125 -0.96875q-1.140625 0 -1.9375 0.78125q-0.78125 0.765625 -0.859375 2.046875zm9.110046 9.65625l0 -13.640625l1.53125 0l0 1.28125q0.53125 -0.75 1.203125 -1.125q0.6875 -0.375 1.640625 -0.375q1.265625 0 2.234375 0.65625q0.96875 0.640625 1.453125 1.828125q0.5 1.1875 0.5 2.59375q0 1.515625 -0.546875 2.734375q-0.546875 1.203125 -1.578125 1.84375q-1.03125 0.640625 -2.171875 0.640625q-0.84375 0 -1.515625 -0.34375q-0.65625 -0.359375 -1.078125 -0.890625l0 4.796875l-1.671875 0zm1.515625 -8.65625q0 1.90625 0.765625 2.8125q0.78125 0.90625 1.875 0.90625q1.109375 0 1.890625 -0.9375q0.796875 -0.9375 0.796875 -2.921875q0 -1.875 -0.78125 -2.8125q-0.765625 -0.9375 -1.84375 -0.9375q-1.0625 0 -1.890625 1.0q-0.8125 1.0 -0.8125 2.890625zm8.235107 -0.046875q0 -2.734375 1.53125 -4.0625q1.265625 -1.09375 3.09375 -1.09375q2.03125 0 3.3125 1.34375q1.296875 1.328125 1.296875 3.671875q0 1.90625 -0.578125 3.0q-0.5625 1.078125 -1.65625 1.6875q-1.078125 0.59375 -2.375 0.59375q-2.0625 0 -3.34375 -1.328125q-1.28125 -1.328125 -1.28125 -3.8125zm1.71875 0q0 1.890625 0.828125 2.828125q0.828125 0.9375 2.078125 0.9375q1.25 0 2.0625 -0.9375q0.828125 -0.953125 0.828125 -2.890625q0 -1.828125 -0.828125 -2.765625q-0.828125 -0.9375 -2.0625 -0.9375q-1.25 0 -2.078125 0.9375q-0.828125 0.9375 -0.828125 2.828125zm9.266357 4.921875l0 -9.859375l1.5 0l0 1.5q0.578125 -1.046875 1.0625 -1.375q0.484375 -0.34375 1.078125 -0.34375q0.84375 0 1.71875 0.546875l-0.578125 1.546875q-0.609375 -0.359375 -1.234375 -0.359375q-0.546875 0 -0.984375 0.328125q-0.421875 0.328125 -0.609375 0.90625q-0.28125 0.890625 -0.28125 1.953125l0 5.15625l-1.671875 0zm9.8845215 -1.5l0.234375 1.484375q-0.703125 0.140625 -1.265625 0.140625q-0.90625 0 -1.40625 -0.28125q-0.5 -0.296875 -0.703125 -0.75q-0.203125 -0.46875 -0.203125 -1.984375l0 -5.65625l-1.234375 0l0 -1.3125l1.234375 0l0 -2.4375l1.65625 -1.0l0 3.4375l1.6875 0l0 1.3125l-1.6875 0l0 5.75q0 0.71875 0.078125 0.921875q0.09375 0.203125 0.296875 0.328125q0.203125 0.125 0.578125 0.125q0.265625 0 0.734375 -0.078125z" fill-rule="nonzero"></path><path fill="#000000" fill-opacity="0.0" d="m772.58655 251.47244l0 54.992126" fill-rule="nonzero"></path><path stroke="#000000" stroke-width="2.0" stroke-linejoin="round" stroke-linecap="butt" d="m772.58655 251.47244l0 42.992126" fill-rule="evenodd"></path><path fill="#000000" stroke="#000000" stroke-width="2.0" stroke-linecap="butt" d="m769.2831 294.46457l3.3034668 9.076202l3.3034668 -9.076202z" fill-rule="evenodd"></path><path fill="#000000" fill-opacity="0.0" d="m248.18898 177.94751l383.62207 0l0 38.29921l-383.62207 0z" fill-rule="nonzero"></path><path fill="#000000" d="m262.11084 204.86751l0 -12.0l-4.46875 0l0 -1.59375l10.765625 0l0 1.59375l-4.5 0l0 12.0l-1.796875 0zm7.708496 0l0 -9.859375l1.5 0l0 1.5q0.578125 -1.046875 1.0625 -1.375q0.484375 -0.34375 1.078125 -0.34375q0.84375 0 1.71875 0.546875l-0.578125 1.546875q-0.609375 -0.359375 -1.234375 -0.359375q-0.546875 0 -0.984375 0.328125q-0.421875 0.328125 -0.609375 0.90625q-0.28125 0.890625 -0.28125 1.953125l0 5.15625l-1.671875 0zm12.665802 -1.21875q-0.9375 0.796875 -1.796875 1.125q-0.859375 0.3125 -1.84375 0.3125q-1.609375 0 -2.484375 -0.78125q-0.875 -0.796875 -0.875 -2.03125q0 -0.734375 0.328125 -1.328125q0.328125 -0.59375 0.859375 -0.953125q0.53125 -0.359375 1.203125 -0.546875q0.5 -0.140625 1.484375 -0.25q2.03125 -0.25 2.984375 -0.578125q0 -0.34375 0 -0.4375q0 -1.015625 -0.46875 -1.4375q-0.640625 -0.5625 -1.90625 -0.5625q-1.171875 0 -1.734375 0.40625q-0.5625 0.40625 -0.828125 1.46875l-1.640625 -0.234375q0.234375 -1.046875 0.734375 -1.6875q0.515625 -0.640625 1.46875 -0.984375q0.96875 -0.359375 2.25 -0.359375q1.265625 0 2.046875 0.296875q0.78125 0.296875 1.15625 0.75q0.375 0.453125 0.515625 1.140625q0.09375 0.421875 0.09375 1.53125l0 2.234375q0 2.328125 0.09375 2.953125q0.109375 0.609375 0.4375 1.171875l-1.75 0q-0.265625 -0.515625 -0.328125 -1.21875zm-0.140625 -3.71875q-0.90625 0.359375 -2.734375 0.625q-1.03125 0.140625 -1.453125 0.328125q-0.421875 0.1875 -0.65625 0.546875q-0.234375 0.359375 -0.234375 0.796875q0 0.671875 0.5 1.125q0.515625 0.4375 1.484375 0.4375q0.96875 0 1.71875 -0.421875q0.75 -0.4375 1.109375 -1.15625q0.265625 -0.578125 0.265625 -1.671875l0 -0.609375zm6.813202 4.9375l-3.75 -9.859375l1.765625 0l2.125 5.90625q0.34375 0.953125 0.625 1.984375q0.21875 -0.78125 0.625 -1.875l2.1875 -6.015625l1.71875 0l-3.734375 9.859375l-1.5625 0zm6.609375 -11.6875l0 -1.90625l1.671875 0l0 1.90625l-1.671875 0zm0 11.6875l0 -9.859375l1.671875 0l0 9.859375l-1.671875 0zm3.4573364 -2.9375l1.65625 -0.265625q0.140625 1.0 0.765625 1.53125q0.640625 0.515625 1.78125 0.515625q1.15625 0 1.703125 -0.46875q0.5625 -0.46875 0.5625 -1.09375q0 -0.5625 -0.484375 -0.890625q-0.34375 -0.21875 -1.703125 -0.5625q-1.84375 -0.46875 -2.5625 -0.796875q-0.703125 -0.34375 -1.078125 -0.9375q-0.359375 -0.609375 -0.359375 -1.328125q0 -0.65625 0.296875 -1.21875q0.3125 -0.5625 0.828125 -0.9375q0.390625 -0.28125 1.0625 -0.484375q0.671875 -0.203125 1.4375 -0.203125q1.171875 0 2.046875 0.34375q0.875 0.328125 1.28125 0.90625q0.421875 0.5625 0.578125 1.515625l-1.625 0.21875q-0.109375 -0.75 -0.65625 -1.171875q-0.53125 -0.4375 -1.5 -0.4375q-1.15625 0 -1.640625 0.390625q-0.484375 0.375 -0.484375 0.875q0 0.328125 0.203125 0.59375q0.203125 0.265625 0.640625 0.4375q0.25 0.09375 1.46875 0.4375q1.765625 0.46875 2.46875 0.765625q0.703125 0.296875 1.09375 0.875q0.40625 0.578125 0.40625 1.4375q0 0.828125 -0.484375 1.578125q-0.484375 0.734375 -1.40625 1.140625q-0.921875 0.390625 -2.078125 0.390625q-1.921875 0 -2.9375 -0.796875q-1.0 -0.796875 -1.28125 -2.359375zm25.105164 -1.828125l1.796875 0.453125q-0.5625 2.21875 -2.03125 3.390625q-1.46875 1.15625 -3.59375 1.15625q-2.203125 0 -3.578125 -0.890625q-1.375 -0.90625 -2.09375 -2.59375q-0.71875 -1.703125 -0.71875 -3.65625q0 -2.125 0.796875 -3.703125q0.8125 -1.578125 2.3125 -2.390625q1.5 -0.828125 3.296875 -0.828125q2.046875 0 3.4375 1.046875q1.390625 1.03125 1.9375 2.90625l-1.765625 0.421875q-0.46875 -1.484375 -1.375 -2.15625q-0.90625 -0.6875 -2.265625 -0.6875q-1.5625 0 -2.625 0.75q-1.046875 0.75 -1.484375 2.03125q-0.421875 1.265625 -0.421875 2.609375q0 1.734375 0.5 3.03125q0.515625 1.28125 1.578125 1.921875q1.078125 0.640625 2.3125 0.640625q1.515625 0 2.5625 -0.859375q1.046875 -0.875 1.421875 -2.59375zm4.0667114 4.765625l0 -13.59375l1.8125 0l0 13.59375l-1.8125 0z" fill-rule="nonzero"></path><path fill="#000000" d="m344.6577 194.02376l-6.609375 0l0 -1.109375q-2.078125 1.34375 -4.828125 2.234375l-0.65625 -1.1875q5.265625 -1.9375 8.078125 -4.6875l1.34375 0.234375q0.671875 0.140625 0 0.4375q3.265625 2.234375 7.9375 3.421875l-0.4375 1.40625q-2.078125 -0.453125 -4.828125 -1.78125l0 1.03125zm-9.953125 0.75l13.359375 0l0 4.53125l-13.359375 0l0 -4.53125zm6.53125 -4.15625q-1.625 1.328125 -2.96875 2.21875l6.09375 0q-1.5625 -0.734375 -3.125 -2.21875zm2.078125 6.96875q0.53125 -0.8125 0.96875 -1.625l-2.21875 0l0 2.15625l2.078125 0l-0.828125 -0.53125zm-5.109375 -1.625q0.8125 0.671875 1.328125 1.5625l-0.8125 0.59375l1.859375 0l0 -2.15625l-2.375 0zm7.34375 6.453125l0 -1.1875l-8.390625 0l0 1.1875l8.390625 0zm1.484375 4.15625l-1.484375 0l0 -0.515625l-8.390625 0l0 0.59375l-1.484375 0l0 -6.609375l11.359375 0l0 6.53125zm-1.484375 -1.703125l0 -1.265625l-8.390625 0l0 1.265625l8.390625 0zm-7.28125 -6.75q-0.4375 -0.671875 -1.109375 -1.421875l0.890625 -0.734375l-1.859375 0l0 2.15625l2.078125 0zm8.3125 0l0 -2.15625l-2.078125 0l0.828125 0.375q0.515625 0.296875 -0.078125 0.4375q-0.453125 0.671875 -0.890625 1.34375l2.21875 0zm18.5625 -2.234375l0 -2.453125l-9.359375 0l0 2.453125l9.359375 0zm0 1.40625l-9.359375 0l0 2.53125l9.359375 0l0 -2.53125zm0 6.6875l0 -2.75l-9.359375 0l0 2.75l9.359375 0zm-6.234375 -11.953125l0.671875 -2.59375l1.78125 0.375q0.296875 0.296875 -0.234375 0.359375l-0.8125 1.859375l6.3125 0l0 14.03125l-1.484375 0l0 -0.671875l-9.359375 0l0 0.890625l-1.484375 0l0 -14.25l4.609375 0zm19.671875 13.21875q0.734375 -0.375 1.546875 -1.125l-8.3125 1.5625q-0.0625 0.53125 -0.359375 0.234375l-0.453125 -1.640625l4.3125 -0.515625l0 -1.34375l-3.5 0l0 -1.1875l3.5 0l0 -1.109375l-1.71875 0l-1.625 0l0 -5.265625l3.34375 0l0 -1.046875l-4.3125 0l0 -1.1875l4.3125 0l0 -0.890625q-1.859375 0.078125 -3.71875 0.15625l-0.21875 -1.265625q3.640625 0 7.796875 -0.8125l0.65625 1.25q0.234375 0.453125 -0.4375 0.15625q-1.5625 0.21875 -2.828125 0.375l0 1.03125l4.09375 0l0 1.1875l-4.09375 0l0 1.046875l3.421875 0l0 5.265625l-3.421875 0l0 1.109375l3.71875 0l0 1.1875l-3.71875 0l0 1.109375l3.71875 -0.59375l0 1.046875q2.15625 -1.9375 2.21875 -5.859375l0.078125 -2.90625l-1.78125 0l0 -1.40625l1.78125 0l0 -3.78125l1.40625 0q0.59375 0.078125 0.078125 0.4375l0 3.34375l3.265625 0l-0.140625 9.796875q-0.078125 2.671875 -1.9375 2.671875l-2.0 0l-0.21875 -1.40625l1.703125 0q0.890625 0 0.96875 -1.5625l0.21875 -8.09375l-1.859375 0l-0.078125 3.5q-0.0625 5.109375 -4.515625 7.9375l-0.890625 -1.40625zm-2.015625 -7.359375l0 1.34375l2.15625 0l0 -1.34375l-2.15625 0zm0 -2.140625l0 1.25l2.15625 0l0 -1.25l-2.15625 0zm-3.328125 2.140625l0 1.34375l2.078125 0l0 -1.34375l-2.078125 0zm0 -2.140625l0 1.25l2.078125 0l0 -1.25l-2.078125 0zm32.71875 -5.578125q0.59375 0.078125 0.078125 0.453125l0 14.46875q0 1.1875 -1.1875 1.1875l-1.484375 0l-0.21875 -1.40625l1.109375 0q0.296875 0 0.296875 -0.296875l0 -14.40625l1.40625 0zm-4.890625 12.46875l0 -10.75l1.40625 0q0.59375 0.0625 0.078125 0.4375l0 10.3125l-1.484375 0zm-10.25 -2.96875l3.421875 0l0 -2.140625l1.40625 0q0.59375 0.0625 0.078125 0.4375l0 1.703125l3.484375 0l0 1.421875l-3.484375 0l0 2.59375l4.0 -0.59375l0.234375 1.265625l-8.90625 1.625q-0.078125 0.53125 -0.375 0.234375l-0.59375 -1.796875l4.15625 -0.515625l0 -2.8125l-3.421875 0l0 -1.421875zm0.234375 -2.375q-0.078125 0.53125 -0.375 0.234375l-0.453125 -1.78125l1.9375 -0.078125l1.40625 -3.71875l-3.265625 0l0 -1.40625l9.359375 0l0 1.40625l-4.390625 0l-1.625 3.640625l3.5625 -0.296875q-0.515625 -0.734375 -1.40625 -1.625l1.1875 -0.828125q1.78125 1.640625 2.890625 3.5625l-1.34375 0.96875l-0.59375 -0.890625l-6.890625 0.8125z" fill-rule="nonzero"></path><path fill="#000000" d="m415.6421 199.53938l0 -1.609375l5.765625 0l0 5.046875q-1.328125 1.0625 -2.75 1.59375q-1.40625 0.53125 -2.890625 0.53125q-2.0 0 -3.640625 -0.859375q-1.625 -0.859375 -2.46875 -2.484375q-0.828125 -1.625 -0.828125 -3.625q0 -1.984375 0.828125 -3.703125q0.828125 -1.71875 2.390625 -2.546875q1.5625 -0.84375 3.59375 -0.84375q1.46875 0 2.65625 0.484375q1.203125 0.46875 1.875 1.328125q0.671875 0.84375 1.03125 2.21875l-1.625 0.4375q-0.3125 -1.03125 -0.765625 -1.625q-0.453125 -0.59375 -1.296875 -0.953125q-0.84375 -0.359375 -1.875 -0.359375q-1.234375 0 -2.140625 0.375q-0.890625 0.375 -1.453125 1.0q-0.546875 0.609375 -0.84375 1.34375q-0.53125 1.25 -0.53125 2.734375q0 1.8125 0.625 3.046875q0.640625 1.21875 1.828125 1.8125q1.203125 0.59375 2.546875 0.59375q1.171875 0 2.28125 -0.453125q1.109375 -0.453125 1.6875 -0.953125l0 -2.53125l-4.0 0zm7.948944 -6.359375l0 -1.90625l1.671875 0l0 1.90625l-1.671875 0zm0 11.6875l0 -9.859375l1.671875 0l0 9.859375l-1.671875 0zm7.785431 -1.5l0.234375 1.484375q-0.703125 0.140625 -1.265625 0.140625q-0.90625 0 -1.40625 -0.28125q-0.5 -0.296875 -0.703125 -0.75q-0.203125 -0.46875 -0.203125 -1.984375l0 -5.65625l-1.234375 0l0 -1.3125l1.234375 0l0 -2.4375l1.65625 -1.0l0 3.4375l1.6875 0l0 1.3125l-1.6875 0l0 5.75q0 0.71875 0.078125 0.921875q0.09375 0.203125 0.296875 0.328125q0.203125 0.125 0.578125 0.125q0.265625 0 0.734375 -0.078125zm1.7926941 1.5l0 -13.59375l1.8125 0l0 5.578125l7.0625 0l0 -5.578125l1.796875 0l0 13.59375l-1.796875 0l0 -6.40625l-7.0625 0l0 6.40625l-1.8125 0zm19.66043 0l0 -1.453125q-1.140625 1.671875 -3.125 1.671875q-0.859375 0 -1.625 -0.328125q-0.75 -0.34375 -1.125 -0.84375q-0.359375 -0.5 -0.515625 -1.234375q-0.09375 -0.5 -0.09375 -1.5625l0 -6.109375l1.671875 0l0 5.46875q0 1.3125 0.09375 1.765625q0.15625 0.65625 0.671875 1.03125q0.515625 0.375 1.265625 0.375q0.75 0 1.40625 -0.375q0.65625 -0.390625 0.921875 -1.046875q0.28125 -0.671875 0.28125 -1.9375l0 -5.28125l1.671875 0l0 9.859375l-1.5 0zm5.4694824 0l-1.546875 0l0 -13.59375l1.65625 0l0 4.84375q1.0625 -1.328125 2.703125 -1.328125q0.90625 0 1.71875 0.375q0.8125 0.359375 1.328125 1.03125q0.53125 0.65625 0.828125 1.59375q0.296875 0.9375 0.296875 2.0q0 2.53125 -1.25 3.921875q-1.25 1.375 -3.0 1.375q-1.75 0 -2.734375 -1.453125l0 1.234375zm-0.015625 -5.0q0 1.765625 0.46875 2.5625q0.796875 1.28125 2.140625 1.28125q1.09375 0 1.890625 -0.9375q0.796875 -0.953125 0.796875 -2.84375q0 -1.921875 -0.765625 -2.84375q-0.765625 -0.921875 -1.84375 -0.921875q-1.09375 0 -1.890625 0.953125q-0.796875 0.953125 -0.796875 2.75z" fill-rule="nonzero"></path><path fill="#000000" d="m480.04977 191.94563l-1.84375 0.296875l0 13.734375l-1.484375 0l0 -13.578125l-2.15625 0.140625l0 7.796875q0 3.34375 -2.375 6.171875l-0.8125 -1.484375q1.703125 -2.15625 1.703125 -4.828125l0 -9.203125l1.328125 0.140625q4.3125 -0.140625 7.875 -1.328125l0.890625 1.703125q0.140625 0.59375 -0.453125 0.140625q-0.59375 0.078125 -1.1875 0.15625l0 2.890625q0 6.015625 2.53125 9.359375l-0.890625 1.859375q-3.125 -3.5 -3.125 -11.0625l0 -2.90625zm-9.5 -2.375q0.59375 0.078125 0.078125 0.453125l0 3.1875l1.859375 0l0 1.40625l-1.859375 0l0 3.71875l1.859375 -0.453125l0 1.421875l-1.859375 0.515625l0 5.421875q0 1.1875 -0.96875 1.1875l-1.1875 0l-0.296875 -1.40625l0.671875 0q0.296875 0 0.296875 -0.3125l0 -4.515625l-1.78125 0.4375q-0.375 0.59375 -0.4375 0l-0.296875 -1.484375l2.515625 -0.515625l0 -4.015625l-2.296875 0l0 -1.40625l2.296875 0l0 -3.640625l1.40625 0zm27.6875 14.78125q-1.859375 1.625 -3.703125 2.21875l-0.828125 -1.484375q2.015625 -0.59375 3.421875 -1.703125q-1.34375 -1.5625 -2.078125 -3.421875l-1.109375 0l0 -1.40625l6.375 0l0.15625 -0.296875l1.25 0.96875q0.078125 0.296875 -0.359375 0.375q-0.828125 2.140625 -2.15625 3.703125q1.109375 0.890625 3.859375 1.5625l-0.515625 1.5625q-2.15625 -0.453125 -4.3125 -2.078125zm-1.78125 -4.390625q0.96875 1.859375 1.703125 2.453125q0.671875 -0.671875 1.5625 -2.453125l-3.265625 0zm-4.375 3.5625l0 -1.25l-2.75 0l0 1.484375l2.75 -0.234375zm1.265625 3.046875l-1.265625 0l0 -1.859375l-5.203125 0.75q-0.359375 0.515625 -0.4375 0.21875l-0.453125 -1.78125l2.078125 -0.078125l0 -6.375l-2.296875 0l0 -1.1875l17.0 0l0 1.1875l-9.421875 0l0 9.125zm-4.75 -11.203125l0 -5.421875l11.34375 0l0 5.421875l-11.34375 0zm0.734375 2.078125l0 1.1875l2.75 0l0 -1.1875l-2.75 0zm0 2.375l0 1.265625l2.75 0l0 -1.265625l-2.75 0zm0.75 -6.609375l0 0.96875l8.375 0l0 -0.96875l-8.375 0zm0 -2.078125l0 0.890625l8.375 0l0 -0.890625l-8.375 0zm27.15628 13.21875q-1.859375 1.625 -3.703125 2.21875l-0.828125 -1.484375q2.015625 -0.59375 3.421875 -1.703125q-1.34375 -1.5625 -2.078125 -3.421875l-1.109375 0l0 -1.40625l6.375 0l0.15625 -0.296875l1.25 0.96875q0.078125 0.296875 -0.359375 0.375q-0.828125 2.140625 -2.15625 3.703125q1.109375 0.890625 3.859375 1.5625l-0.515625 1.5625q-2.15625 -0.453125 -4.3125 -2.078125zm-1.78125 -4.390625q0.96875 1.859375 1.703125 2.453125q0.671875 -0.671875 1.5625 -2.453125l-3.265625 0zm-4.3750305 3.5625l0 -1.25l-2.75 0l0 1.484375l2.75 -0.234375zm1.2656555 3.046875l-1.2656555 0l0 -1.859375l-5.203125 0.75q-0.359375 0.515625 -0.4375 0.21875l-0.453125 -1.78125l2.078125 -0.078125l0 -6.375l-2.296875 0l0 -1.1875l17.00003 0l0 1.1875l-9.421875 0l0 9.125zm-4.7500305 -11.203125l0 -5.421875l11.3437805 0l0 5.421875l-11.3437805 0zm0.734375 2.078125l0 1.1875l2.75 0l0 -1.1875l-2.75 0zm0 2.375l0 1.265625l2.75 0l0 -1.265625l-2.75 0zm0.75 -6.609375l0 0.96875l8.3750305 0l0 -0.96875l-8.3750305 0zm0 -2.078125l0 0.890625l8.3750305 0l0 -0.890625l-8.3750305 0zm21.515656 14.03125q3.046875 -1.640625 3.046875 -5.5625l0 -8.546875l1.5625 0.296875l4.0 -1.25l1.109375 1.484375q0.15625 0.4375 -0.515625 0.140625l-4.671875 0.890625l0 3.1875l5.859375 0l0 1.421875l-2.21875 0l0 9.28125l-1.484375 0l0 -9.28125l-2.15625 0l0 2.8125q0 4.375 -3.71875 6.53125l-0.8125 -1.40625zm-1.40625 1.40625l-1.484375 0l0 -4.453125q-1.1875 1.9375 -2.59375 3.046875l-1.125 -1.34375q2.078125 -1.484375 3.5 -3.703125l-3.125 0l0 -1.40625l3.34375 0l0 -1.640625l-3.78125 0l0 -1.40625l5.1875 0l0.8125 -2.671875l-5.484375 0l0 -1.40625l3.265625 0l0 -2.078125l1.40625 0q0.59375 0.0625 0.078125 0.4375l0 1.640625l3.265625 0l0 1.40625l-0.96875 0l-1.03125 2.671875l2.375 0l0 1.40625l-3.640625 0l0 1.640625l3.265625 0l0 1.40625l-3.265625 0l0 0.671875q1.03125 0.296875 2.890625 1.546875l-0.890625 1.484375q-1.03125 -1.03125 -2.0 -1.625l0 4.375zm-2.96875 -11.0625q-0.296875 -1.03125 -0.8125 -2.0l1.40625 -0.4375q0.59375 0.953125 0.890625 2.0l-1.484375 0.4375zm26.203125 4.90625q0 3.9375 -2.15625 6.015625l-1.046875 -1.109375q1.71875 -2.09375 1.71875 -4.828125l0 -10.09375l8.453125 0l0 1.40625l-6.96875 0l0 3.265625l4.75 0l0.359375 -0.375l1.421875 1.046875q0.296875 0.140625 -0.296875 0.59375q-0.53125 3.484375 -2.015625 6.0q1.421875 1.265625 3.5 2.3125l-0.890625 1.328125q-1.859375 -1.03125 -3.421875 -2.515625q-1.40625 1.78125 -3.34375 2.96875l-0.8125 -1.265625q2.0 -1.265625 3.1875 -2.890625q-1.484375 -2.609375 -1.625 -5.796875l-0.8125 0l0 3.9375zm-4.015625 -10.6875q0.59375 0.078125 0.078125 0.4375l0 4.53125l1.78125 0l0 1.40625l-4.828125 0l0 2.453125l3.34375 0l0 7.953125l-1.484375 0l0 -6.546875l-1.859375 0l0 2.078125q0 2.234375 -1.328125 4.46875l-1.34375 -0.96875q1.1875 -1.421875 1.1875 -4.390625l0 -10.75l1.40625 0q0.59375 0.0625 0.078125 0.4375l0 3.859375l1.5625 0l0 -4.96875l1.40625 0zm7.34375 11.359375q0.96875 -1.71875 1.34375 -4.609375l-2.53125 0q0.234375 2.828125 1.1875 4.609375zm16.78125 -6.765625q-0.75 2.078125 -2.375 3.9375l-1.109375 -1.328125q2.515625 -2.53125 3.1875 -7.203125l1.5625 0.515625q0.65625 0.296875 -0.078125 0.453125q-0.21875 1.03125 -0.59375 2.21875l5.34375 0l-0.375 10.09375q-0.078125 2.96875 -2.375 2.96875l-2.078125 0l-0.21875 -1.40625l1.921875 0q1.046875 0 1.125 -1.34375l0.359375 -8.90625l-4.296875 0zm0.890625 6.90625q-1.046875 -1.484375 -2.296875 -2.671875l1.25 -1.328125q1.484375 1.328125 2.375 2.59375l-1.328125 1.40625zm-8.765625 -8.3125q0.453125 -1.40625 0.828125 -3.265625l1.78125 0.671875q0.296875 0.296875 -0.234375 0.375q-0.21875 0.953125 -0.8125 2.21875l2.75 0l0 12.25l-1.484375 0l0 -0.890625l-3.265625 0l0 1.484375l-1.484375 0l0 -12.84375l1.921875 0zm2.828125 1.40625l-3.265625 0l0 3.265625l3.265625 0l0 -3.265625zm0 4.6875l-3.265625 0l0 3.859375l3.265625 0l0 -3.859375z" fill-rule="nonzero"></path><path fill="#000000" d="m587.5654 201.25813l1.640625 0.21875q-0.265625 1.6875 -1.375 2.65625q-1.109375 0.953125 -2.734375 0.953125q-2.015625 0 -3.25 -1.3125q-1.21875 -1.328125 -1.21875 -3.796875q0 -1.59375 0.515625 -2.78125q0.53125 -1.203125 1.609375 -1.796875q1.09375 -0.609375 2.359375 -0.609375q1.609375 0 2.625 0.8125q1.015625 0.8125 1.3125 2.3125l-1.625 0.25q-0.234375 -1.0 -0.828125 -1.5q-0.59375 -0.5 -1.421875 -0.5q-1.265625 0 -2.0625 0.90625q-0.78125 0.90625 -0.78125 2.859375q0 1.984375 0.765625 2.890625q0.765625 0.890625 1.984375 0.890625q0.984375 0 1.640625 -0.59375q0.65625 -0.609375 0.84375 -1.859375zm2.265625 -1.3125q0 -2.734375 1.53125 -4.0625q1.265625 -1.09375 3.09375 -1.09375q2.03125 0 3.3125 1.34375q1.296875 1.328125 1.296875 3.671875q0 1.90625 -0.578125 3.0q-0.5625 1.078125 -1.65625 1.6875q-1.078125 0.59375 -2.375 0.59375q-2.0625 0 -3.34375 -1.328125q-1.28125 -1.328125 -1.28125 -3.8125zm1.71875 0q0 1.890625 0.828125 2.828125q0.828125 0.9375 2.078125 0.9375q1.25 0 2.0625 -0.9375q0.828125 -0.953125 0.828125 -2.890625q0 -1.828125 -0.828125 -2.765625q-0.828125 -0.9375 -2.0625 -0.9375q-1.25 0 -2.078125 0.9375q-0.828125 0.9375 -0.828125 2.828125zm15.672546 4.921875l0 -1.25q-0.9375 1.46875 -2.75 1.46875q-1.171875 0 -2.171875 -0.640625q-0.984375 -0.65625 -1.53125 -1.8125q-0.53125 -1.171875 -0.53125 -2.6875q0 -1.46875 0.484375 -2.671875q0.5 -1.203125 1.46875 -1.84375q0.984375 -0.640625 2.203125 -0.640625q0.890625 0 1.578125 0.375q0.703125 0.375 1.140625 0.984375l0 -4.875l1.65625 0l0 13.59375l-1.546875 0zm-5.28125 -4.921875q0 1.890625 0.796875 2.828125q0.8125 0.9375 1.890625 0.9375q1.09375 0 1.859375 -0.890625q0.765625 -0.890625 0.765625 -2.734375q0 -2.015625 -0.78125 -2.953125q-0.78125 -0.953125 -1.921875 -0.953125q-1.109375 0 -1.859375 0.90625q-0.75 0.90625 -0.75 2.859375zm16.016357 1.75l1.71875 0.21875q-0.40625 1.5 -1.515625 2.34375q-1.09375 0.828125 -2.8125 0.828125q-2.15625 0 -3.421875 -1.328125q-1.265625 -1.328125 -1.265625 -3.734375q0 -2.484375 1.265625 -3.859375q1.28125 -1.375 3.328125 -1.375q1.984375 0 3.234375 1.34375q1.25 1.34375 1.25 3.796875q0 0.140625 -0.015625 0.4375l-7.34375 0q0.09375 1.625 0.921875 2.484375q0.828125 0.859375 2.0625 0.859375q0.90625 0 1.546875 -0.46875q0.65625 -0.484375 1.046875 -1.546875zm-5.484375 -2.703125l5.5 0q-0.109375 -1.234375 -0.625 -1.859375q-0.796875 -0.96875 -2.078125 -0.96875q-1.140625 0 -1.9375 0.78125q-0.78125 0.765625 -0.859375 2.046875z" fill-rule="nonzero"></path><path fill="#000000" fill-opacity="0.0" d="m626.3753 218.51181l-380.78738 0" fill-rule="nonzero"></path><path stroke="#000000" stroke-width="2.0" stroke-linejoin="round" stroke-linecap="butt" stroke-dasharray="8.0,6.0" d="m626.3753 218.51181l-368.78738 0" fill-rule="evenodd"></path><path fill="#000000" stroke="#000000" stroke-width="2.0" stroke-linecap="butt" d="m257.58792 215.20834l-9.076187 3.3034668l9.076187 3.3034668z" fill-rule="evenodd"></path><path fill="#000000" fill-opacity="0.0" d="m5.1469817 8.083989l245.92125 0l0 46.89764l-245.92125 0z" fill-rule="nonzero"></path><path fill="#000000" d="m39.56073 28.769613q-1.546875 2.375 -2.671875 3.562498q0.96875 1.5625 2.234375 1.859375q0.59375 0.140625 0.671875 -1.421875l1.40625 0.75q-0.375 2.828125 -1.859375 2.453125q-2.21875 -0.515625 -3.5625 -2.609375q-1.859375 1.5625 -3.999998 2.53125l-0.671875 -1.5625q2.968748 -1.328125 3.937498 -2.374998q-0.75 -2.21875 -0.75 -5.71875l-3.640623 0l0 2.90625q1.4218731 -0.296875 2.906248 -0.75l0.21875 1.34375q-1.703125 0.515625 -3.124998 0.890625l0 4.671873q0 1.1875 -1.1875 1.1875l-2.0 0l-0.296875 -1.640625l1.703125 0q0.296875 0 0.296875 -0.296875l0 -3.562498q-1.328125 0.296875 -3.265625 0.75q-0.4375 0.5937481 -0.59375 0.140625l-0.515625 -1.703125q2.078125 -0.21875 4.375 -0.734375l0 -3.203125l-4.078125 0l0 -1.40625l4.078125 0l0 -2.59375l-3.40625 0.4375l-0.375 -1.40625q4.453125 -0.4375 7.046873 -1.328125l0.890625 1.40625q0.15625 0.375 -0.515625 0.21875l-2.156248 0.375l0 2.890625l3.640623 0l0 -4.671875l1.40625 0q0.59375 0.078125 0.078125 0.4375l0 4.234375l5.34375 0l0 1.40625l-5.34375 0q0 2.75 0.453125 4.609375q1.328125 -1.703125 2.21875 -3.34375l1.40625 0.8125q0.453125 0.234375 -0.296875 0.453125zm-1.109375 -4.828125q-0.671875 -0.734375 -1.859375 -1.78125l1.265625 -1.109375q1.265625 1.03125 1.859375 1.78125l-1.265625 1.109375zm8.609375 0.59375q0.96875 0.078125 0.296875 0.59375l0 11.515623l-1.484375 0l0 -9.812498q-0.59375 1.265625 -1.625 2.53125l-0.890625 -1.484375q2.375 -2.890625 3.484375 -8.234375l1.40625 0.359375q0.671875 0.234375 -0.078125 0.53125q-0.4375 1.84375 -1.109375 4.0zm12.984375 -4.296875l0 15.062498q0 1.265625 -1.25 1.265625l-1.859375 0l-0.296875 -1.40625l1.625 0q0.296875 0 0.296875 -0.3125l0 -8.078123l-2.140625 0l0 0.65625l-1.484375 0l0 -7.1875l5.109375 0zm-3.625 3.921875l0 1.421875l2.140625 0l0 -1.421875l-2.140625 0zm0 -2.734375l0 1.546875l2.140625 0l0 -1.546875l-2.140625 0zm-5.9375 0l0 1.546875l1.921875 0l0 -1.546875l-1.921875 0zm1.921875 5.34375l-1.921875 0l0 9.874998l-1.484375 0l0 -16.406248l4.890625 0l0 7.1875l-1.484375 0l0 -0.65625zm-1.921875 -2.609375l0 1.421875l1.921875 0l0 -1.421875l-1.921875 0zm15.28125 1.484375l0.96875 0.234375q0.4375 -0.453125 1.40625 -2.234375l-4.828125 0l0 -1.40625l5.421875 0q0.59375 -1.40625 0.890625 -2.671875l1.640625 0.59375q0.296875 0.296875 -0.234375 0.375q-0.140625 0.65625 -0.65625 1.703125l8.609375 0l0 1.40625l-9.203125 0q-0.890625 2.0 -2.53125 4.15625l0 8.765623l-1.484375 0l0 -7.359373q-0.96875 0.96875 -2.75 2.015625l-0.734375 -1.71875q2.078125 -0.953125 3.484375 -2.515625l0 -1.34375zm8.390625 -0.953125q0.59375 0.0625 0.078125 0.4375l0 2.890625l3.78125 0l0 1.421875l-3.78125 0l0 4.890623l4.890625 0l0 1.421875l-11.203125 0l0 -1.421875l4.828125 0l0 -4.890623l-4.09375 0l0 -1.421875l4.09375 0l0 -3.328125l1.40625 0zm23.671875 9.046873q-4.53125 -2.812498 -7.046875 -7.203123l0 4.6875l3.046875 0l0 1.4062481l-3.046875 0l0 4.015625l-1.484375 0l0 -4.015625l-2.890625 0l0 -1.4062481l2.890625 0l0 -4.6875q-2.15625 4.75 -6.984375 7.578123l-0.8125 -1.5625q5.046875 -2.749998 7.203125 -8.015623l-6.453125 0l0 -1.40625l7.046875 0l0 -3.34375l1.40625 0q0.59375 0.078125 0.078125 0.453125l0 2.890625l7.125 0l0 1.40625l-6.609375 0q2.53125 4.53125 7.34375 7.499998l-0.8125 1.703125zm8.765625 -1.1875l-4.984375 1.78125q-0.0625 0.515625 -0.359375 0.21875l-0.59375 -1.703125l2.296875 -0.671875l0 -5.999998l-2.15625 0l0 -1.421875l2.15625 0l0 -4.15625l1.40625 0q0.59375 0.078125 0.078125 0.453125l0 3.703125l1.921875 0l0 1.421875l-1.921875 0l0 5.640625l2.15625 -0.75l0 1.4843731zm8.15625 2.15625q0.75 0 0.96875 -0.75l0.4375 -1.546875l1.640625 0.515625l-0.375 1.40625q-0.4375 1.78125 -2.15625 1.78125l-6.15625 0q-1.328125 0 -1.328125 -1.265625l0 -7.046873l-1.9375 0.75l-0.4375 -1.484375l2.375 -0.828125l0 -4.21875l1.40625 0q0.59375 0.0625 0.078125 0.4375l0 3.265625l1.78125 -0.671875l0 -5.046875l1.40625 0q0.59375 0.078125 0.078125 0.453125l0 4.078125l2.515625 -0.96875l0.15625 -0.296875l1.546875 1.046875l-0.296875 0.21875l0 5.640625q0 1.1875 -1.1875 1.1875l-1.484375 0l-0.359375 -1.40625l1.25 0q0.296875 0 0.296875 -0.296875l0 -4.453125l-2.4375 0.890625l0 6.374998l-1.484375 0l0 -5.859373l-1.78125 0.671875l0 6.828123q0 0.59375 0.515625 0.59375l4.96875 0zm14.328125 -14.624998l6.9687653 0l0 15.140623q0 1.1875 -1.1875 1.1875l-1.7812653 0l-0.21875 -1.40625l1.4062653 0q0.296875 0 0.296875 -0.296875l0 -8.468748l-2.7343903 0l-2.75 0l0 -6.15625zm-6.15625 11.5l0 -1.1875l2.96875 0l0 -1.78125l-2.453125 0l0 -1.1875l9.34375 0l0 1.1875l-1.921875 0l0 1.78125l2.5156403 0l0 1.1875l-2.5156403 0l0 4.468748l-1.484375 0l0 -4.468748l-2.0 0q0.140625 3.265623 -3.34375 4.828123l-0.75 -1.40625q2.609375 -0.96875 2.609375 -3.421873l-2.96875 0zm2.671875 -10.3125l-3.71875 0l0 1.34375l3.71875 0l0 -1.34375zm1.484375 4.96875l-5.203125 0l0 10.406248l-1.484375 0l0 -16.562498l6.6875 0l0 6.15625zm2.296875 4.15625l0 -1.78125l-2.0 0l0 1.78125l2.0 0zm5.1875153 -7.78125l0 -1.34375l-4.0000153 0l0 1.34375l4.0000153 0zm-4.0000153 2.4375l4.0000153 0l0 -1.25l-4.0000153 0l0 1.25zm-8.6875 0l3.71875 0l0 -1.25l-3.71875 0l0 1.25zm32.437515 11.359373q-2.375 -0.59375 -4.453125 -1.625q-1.9375 1.328125 -4.015625 1.78125l-0.65625 -1.1875q2.296875 -0.59375 3.625 -1.484375q-1.109375 -1.125 -1.625 -2.453123l-0.96875 0l0 -1.1875l6.015625 0l0.296875 -0.296875l0.890625 0.890625q0.4375 0.515625 -0.21875 0.4375q-0.96875 1.4843731 -2.078125 2.531248q1.78125 0.8125 4.078125 1.1875l-0.890625 1.40625zm-8.984375 -5.937498l-0.21875 3.562498q-0.15625 2.453125 -2.671875 2.453125l-1.40625 0l-0.375 -1.40625l1.78125 0q1.1875 0 1.265625 -1.1875l0.140625 -2.234373l-2.515625 0l-0.15625 0.8124981l-1.5625 0q0.671875 -2.812498 0.890625 -4.671873l3.5625 0l0 -1.5625l-2.890625 0l0 -0.21875q-0.59375 0.375 -1.78125 0.8125l-0.734375 -1.1875q2.140625 -0.8125 3.5625 -1.78125l-2.078125 -1.703125l1.03125 -0.96875l2.375 1.78125q1.265625 -0.890625 2.0 -1.84375l-3.265625 0l0 -1.1875l4.234375 0l0.21875 -0.375l1.125 0.671875q0.515625 0.359375 -0.078125 0.4375l-0.15625 0.15625q0.828125 0.65625 1.34375 1.03125l1.78125 -1.78125l1.109375 0.59375q0.453125 0.296875 -0.21875 0.296875l-1.5625 1.5625q0.375 0.296875 1.109375 0.59375l1.78125 -1.859375l1.046875 0.59375q0.375 0.296875 -0.15625 0.296875l-1.546875 1.640625q1.484375 0.734375 3.265625 1.328125l-0.671875 1.484375q-1.484375 -0.59375 -3.125 -1.484375l0 2.375q0 0.671875 0.59375 0.671875l0.375 0q0.375 0 0.453125 -0.515625l0.140625 -0.828125l1.40625 0.375l-0.296875 1.109375q-0.296875 1.046875 -1.25 1.046875l-1.421875 0q-1.25 0 -1.25 -1.40625l0 -1.78125l-2.015625 0l0 0.953125q0 1.78125 -2.078125 2.828125l-0.734375 -0.96875q1.5625 -0.671875 1.5625 -2.078125l0 -1.921875l4.21875 0q-2.8125 -1.640625 -4.59375 -3.265625q-1.640625 2.0 -4.078125 3.328125l2.515625 0l0 3.9375l-3.640625 0l-0.21875 1.484375l3.859375 0zm3.34375 0.96875q0.515625 1.0312481 1.265625 1.6249981q0.953125 -0.8125 1.40625 -1.6249981l-2.671875 0zm18.78125 2.890623q-2.53125 1.859375 -8.6875 2.375l-0.296875 -1.40625q5.125 -0.296875 7.421875 -1.484375q-1.703125 -0.453125 -3.34375 -0.75l-0.4375 0.53125l-1.34375 -0.75l2.0 -2.218748l-5.109375 0l0 -1.1875l6.078125 0l1.1875 -1.640625l-3.9375 0l0 0.515625l-1.25 0l0 -4.96875l3.859375 0l0 -1.625l-5.5 0l0 -1.1875l15.953125 0l0 1.1875l-5.484375 0l0 1.625l3.859375 0l0 4.90625l-1.265625 0l0 -0.453125l-5.5625 0l0.734375 0.375q0.375 0.21875 -0.21875 0.375l-0.734375 0.890625l9.203125 0l0 1.1875l-3.796875 0q-0.890625 1.4843731 -2.140625 2.671873q2.375 0.65625 5.109375 1.921875l-0.953125 1.34375q-2.234375 -1.1875 -5.34375 -2.234375zm-2.828125 -3.703123l-1.265625 1.4062481q1.71875 0.21875 3.796875 0.734375q1.1875 -0.8906231 1.84375 -2.140623l-4.375 0zm0.21875 -8.90625l0 1.625l2.453125 0l0 -1.625l-2.453125 0zm-3.859375 4.890625l2.609375 0l0 -2.078125l-2.609375 0l0 2.078125zm3.859375 -2.078125l0 2.078125l2.453125 0l0 -2.078125l-2.453125 0zm3.71875 0l0 2.078125l2.59375 0l0 -2.078125l-2.59375 0zm7.796875 3.265625q2.21875 -2.96875 3.328125 -8.234375l1.484375 0.296875q0.671875 0.296875 -0.0625 0.4375q-0.59375 2.53125 -1.265625 4.390625q0.890625 0.0625 0.21875 0.4375l0 11.515623l-1.484375 0l0 -9.437498q-0.734375 1.34375 -1.5625 2.375l-0.65625 -1.78125zm8.234375 -7.796875q0.59375 0.078125 0.078125 0.453125l0 2.890625l2.671875 0l0 1.40625l-2.671875 0l0 2.96875l1.703125 0l0 6.531248l-3.484375 0l0 1.203125l-1.484375 0l0 -7.734373l1.78125 0l0 -2.96875l-2.375 0l0 -1.40625l2.375 0l0 -3.34375l1.40625 0zm4.671875 5.28125q0.078125 2.890625 0.890625 5.40625q0.75 -2.375 0.890625 -5.40625l-1.78125 0zm0.96875 -4.609375q-0.296875 1.859375 -0.75 3.1875l4.3125 0l0 1.421875l-1.484375 0q-0.078125 4.0 -1.34375 6.828123q1.046875 1.40625 2.90625 2.515625l-0.59375 1.71875q-2.15625 -1.421875 -3.125 -2.828125q-1.265625 1.9375 -3.703125 3.125l-0.59375 -1.5625q2.21875 -0.96875 3.5625 -2.90625q-1.046875 -2.437498 -1.265625 -5.109373q-0.453125 1.25 -0.890625 1.78125l-0.8125 -1.265625q1.78125 -3.125 2.4375 -7.578125l1.5625 0.296875q0.296875 0.296875 -0.21875 0.375zm-7.34375 12.171873l2.0 0l0 -3.703123l-2.0 0l0 3.703123zm23.375 -8.390623q-0.75 2.078125 -2.375 3.9375l-1.109375 -1.328125q2.515625 -2.53125 3.1875 -7.203125l1.5625 0.515625q0.65625 0.296875 -0.078125 0.453125q-0.21875 1.03125 -0.59375 2.21875l5.34375 0l-0.375 10.093748q-0.078125 2.96875 -2.375 2.96875l-2.078125 0l-0.21875 -1.40625l1.921875 0q1.046875 0 1.125 -1.34375l0.359375 -8.906248l-4.296875 0zm0.890625 6.90625q-1.046875 -1.484375 -2.296875 -2.671875l1.25 -1.328125q1.484375 1.328125 2.375 2.59375l-1.328125 1.40625zm-8.765625 -8.3125q0.453125 -1.40625 0.828125 -3.265625l1.78125 0.671875q0.296875 0.296875 -0.234375 0.375q-0.21875 0.953125 -0.8125 2.21875l2.75 0l0 12.249998l-1.484375 0l0 -0.890625l-3.265625 0l0 1.484375l-1.484375 0l0 -12.843748l1.921875 0zm2.828125 1.40625l-3.265625 0l0 3.265625l3.265625 0l0 -3.265625zm0 4.6875l-3.265625 0l0 3.859373l3.265625 0l0 -3.859373zm20.78125 6.078123q0.296875 0 0.296875 -0.296875l0 -1.484375l-5.859375 0l0 -1.1875l5.859375 0l0 -1.1874981l-7.796875 0l0 -1.1875l7.796875 0l0 -1.109375l-5.859375 0l0 -1.1875l5.859375 0l0 -1.046875l-2.53125 0l-2.4375 0l0 -3.1875l4.96875 0l0 -0.96875l-7.34375 0l0 -1.1875l7.34375 0l0 -1.703125l1.40625 0q0.59375 0.078125 0.078125 0.453125l0 1.25l7.125 0l0 1.1875l-7.125 0l0 0.96875l4.828125 0l0 3.1875l-4.828125 0l0 1.046875l5.71875 0l0 2.296875l2.0 0l0 1.1875l-2.0 0l0 2.828123l-1.484375 0l0 -0.453125l-4.234375 0l0 2.015625q0 1.1875 -1.1875 1.1875l-1.640625 0l-0.21875 -1.421875l1.265625 0zm-3.421875 -9.578123l3.71875 0l0 -1.40625l-3.71875 0l0 1.40625zm5.203125 0l3.5625 0l0 -1.40625l-3.5625 0l0 1.40625zm0 6.609373l4.234375 0l0 -1.1874981l-4.234375 0l0 1.1874981zm4.234375 -2.374998l0 -1.109375l-4.234375 0l0 1.109375l4.234375 0z" fill-rule="nonzero"></path><path fill="#000000" fill-opacity="0.0" d="m645.147 8.083989l245.92126 0l0 46.89764l-245.92126 0z" fill-rule="nonzero"></path><path fill="#000000" d="m678.717 35.003986l0 -11.999998l-4.46875 0l0 -1.59375l10.765625 0l0 1.59375l-4.5 0l0 11.999998l-1.796875 0zm7.708496 0l0 -9.859373l1.5 0l0 1.5q0.578125 -1.046875 1.0625 -1.375q0.484375 -0.34375 1.078125 -0.34375q0.84375 0 1.71875 0.546875l-0.578125 1.546875q-0.609375 -0.359375 -1.234375 -0.359375q-0.546875 0 -0.984375 0.328125q-0.421875 0.328125 -0.609375 0.90625q-0.28125 0.890625 -0.28125 1.953125l0 5.156248l-1.671875 0zm12.6657715 -1.21875q-0.9375 0.796875 -1.796875 1.125q-0.859375 0.3125 -1.84375 0.3125q-1.609375 0 -2.484375 -0.78125q-0.875 -0.796875 -0.875 -2.03125q0 -0.7343731 0.328125 -1.3281231q0.328125 -0.59375 0.859375 -0.953125q0.53125 -0.359375 1.203125 -0.546875q0.5 -0.140625 1.484375 -0.25q2.03125 -0.25 2.984375 -0.578125q0 -0.34375 0 -0.4375q0 -1.015625 -0.46875 -1.4375q-0.640625 -0.5625 -1.90625 -0.5625q-1.171875 0 -1.734375 0.40625q-0.5625 0.40625 -0.828125 1.46875l-1.640625 -0.234375q0.234375 -1.046875 0.734375 -1.6875q0.515625 -0.640625 1.46875 -0.984375q0.96875 -0.359375 2.25 -0.359375q1.265625 0 2.046875 0.296875q0.78125 0.296875 1.15625 0.75q0.375 0.453125 0.515625 1.140625q0.09375 0.421875 0.09375 1.53125l0 2.234375q0 2.328123 0.09375 2.953123q0.109375 0.609375 0.4375 1.171875l-1.75 0q-0.265625 -0.515625 -0.328125 -1.21875zm-0.140625 -3.718748q-0.90625 0.359375 -2.734375 0.625q-1.03125 0.140625 -1.453125 0.328125q-0.421875 0.1875 -0.65625 0.546875q-0.234375 0.359375 -0.234375 0.7968731q0 0.671875 0.5 1.125q0.515625 0.4375 1.484375 0.4375q0.96875 0 1.71875 -0.421875q0.75 -0.4375 1.109375 -1.15625q0.265625 -0.5781231 0.265625 -1.6718731l0 -0.609375zm6.8132324 4.937498l-3.75 -9.859373l1.765625 0l2.125 5.90625q0.34375 0.9531231 0.625 1.9843731q0.21875 -0.78125 0.625 -1.8749981l2.1875 -6.015625l1.71875 0l-3.734375 9.859373l-1.5625 0zm6.609375 -11.687498l0 -1.90625l1.671875 0l0 1.90625l-1.671875 0zm0 11.687498l0 -9.859373l1.671875 0l0 9.859373l-1.671875 0zm3.4573364 -2.9375l1.65625 -0.2656231q0.140625 0.9999981 0.765625 1.5312481q0.640625 0.515625 1.78125 0.515625q1.15625 0 1.703125 -0.46875q0.5625 -0.46875 0.5625 -1.09375q0 -0.5624981 -0.484375 -0.8906231q-0.34375 -0.21875 -1.703125 -0.5625q-1.84375 -0.46875 -2.5625 -0.796875q-0.703125 -0.34375 -1.078125 -0.9375q-0.359375 -0.609375 -0.359375 -1.328125q0 -0.65625 0.296875 -1.21875q0.3125 -0.5625 0.828125 -0.9375q0.390625 -0.28125 1.0625 -0.484375q0.671875 -0.203125 1.4375 -0.203125q1.171875 0 2.046875 0.34375q0.875 0.328125 1.28125 0.90625q0.421875 0.5625 0.578125 1.515625l-1.625 0.21875q-0.109375 -0.75 -0.65625 -1.171875q-0.53125 -0.4375 -1.5 -0.4375q-1.15625 0 -1.640625 0.390625q-0.484375 0.375 -0.484375 0.875q0 0.328125 0.203125 0.59375q0.203125 0.265625 0.640625 0.4375q0.25 0.09375 1.46875 0.4375q1.765625 0.46875 2.46875 0.765625q0.703125 0.296875 1.09375 0.875q0.40625 0.578125 0.40625 1.4374981q0 0.828125 -0.484375 1.578125q-0.484375 0.734375 -1.40625 1.140625q-0.921875 0.390625 -2.078125 0.390625q-1.921875 0 -2.9375 -0.796875q-1.0 -0.796875 -1.28125 -2.359375zm25.105164 -1.8281231l1.796875 0.453125q-0.5625 2.218748 -2.03125 3.390623q-1.46875 1.15625 -3.59375 1.15625q-2.203125 0 -3.578125 -0.890625q-1.375 -0.90625 -2.09375 -2.593748q-0.71875 -1.703125 -0.71875 -3.65625q0 -2.125 0.796875 -3.703125q0.8125 -1.578125 2.3125 -2.390625q1.5 -0.828125 3.296875 -0.828125q2.046875 0 3.4375 1.046875q1.390625 1.03125 1.9375 2.90625l-1.765625 0.421875q-0.46875 -1.484375 -1.375 -2.15625q-0.90625 -0.6875 -2.265625 -0.6875q-1.5625 0 -2.625 0.75q-1.046875 0.75 -1.484375 2.03125q-0.421875 1.265625 -0.421875 2.609375q0 1.734375 0.5 3.03125q0.515625 1.2812481 1.578125 1.9218731q1.078125 0.640625 2.3125 0.640625q1.515625 0 2.5625 -0.859375q1.046875 -0.8749981 1.421875 -2.593748zm4.0667114 4.765623l0 -13.593748l1.8125 0l0 13.593748l-1.8125 0z" fill-rule="nonzero"></path><path fill="#000000" d="m763.1232 22.082113l-4.453125 0l0 -1.1875l4.453125 0l0 -1.328125l1.40625 0q0.59375 0.078125 0.078125 0.4375l0 0.890625l1.921875 0l0 1.1875l-1.921875 0l0 2.671875q0 1.1875 -0.96875 1.1875l-1.703125 0l-0.234375 -1.40625l1.125 0q0.296875 0 0.296875 -0.296875l0 -2.15625zm-3.046875 0.15625q0.8125 0.8125 1.484375 1.859375l-1.34375 1.03125q-0.59375 -1.03125 -1.484375 -2.0l1.34375 -0.890625zm-5.34375 -1.703125l2.96875 0l0 0.890625l-2.96875 0l0 0.59375l3.40625 0l0 0.890625l-3.40625 0l0 0.59375l2.96875 0l0 0.890625l-2.96875 0l0 0.65625l3.859375 -0.359375l0 0.59375l0.4375 0.140625q0.53125 0.21875 -0.21875 0.375l-0.375 0.515625l4.53125 0l0 4.3125l-4.375 0l0 0.65625l5.71875 0l0 3.343748q0 1.1875 -0.96875 1.1875l-1.640625 0l-0.21875 -1.40625l1.046875 0q0.296875 0 0.296875 -0.296875l0 -1.640625l-4.234375 0l0 4.234375l-1.484375 0l0 -4.234375l-4.234375 0l0 3.34375l-1.484375 0l0 -4.531248l5.71875 0l0 -0.65625l-2.078125 0l-2.0 0l0 -4.3125l4.0 0l0.21875 -0.671875l-7.125 0.671875q-0.296875 0.59375 -0.4375 0l-0.296875 -1.03125l3.859375 -0.15625l0 -0.734375l-2.96875 0l0 -0.890625l2.96875 0l0 -0.59375l-3.421875 0l0 -0.890625l3.421875 0l0 -0.59375l-2.96875 0l0 -0.890625l2.96875 0l0 -1.046875l1.40625 0q0.59375 0.078125 0.078125 0.453125l0 0.59375zm-0.21875 6.671875l0 0.8125l6.96875 0l0 -0.8125l-6.96875 0zm0 1.703125l0 0.828125l6.96875 0l0 -0.828125l-6.96875 0zm28.859375 -0.140625q-1.546875 2.375 -2.671875 3.562498q0.96875 1.5625 2.234375 1.859375q0.59375 0.140625 0.671875 -1.421875l1.40625 0.75q-0.375 2.828125 -1.859375 2.453125q-2.21875 -0.515625 -3.5625 -2.609375q-1.859375 1.5625 -4.0 2.53125l-0.671875 -1.5625q2.96875 -1.328125 3.9375 -2.374998q-0.75 -2.21875 -0.75 -5.71875l-3.640625 0l0 2.90625q1.421875 -0.296875 2.90625 -0.75l0.21875 1.34375q-1.703125 0.515625 -3.125 0.890625l0 4.671873q0 1.1875 -1.1875 1.1875l-2.0 0l-0.296875 -1.640625l1.703125 0q0.296875 0 0.296875 -0.296875l0 -3.562498q-1.328125 0.296875 -3.265625 0.75q-0.4375 0.5937481 -0.59375 0.140625l-0.515625 -1.703125q2.078125 -0.21875 4.375 -0.734375l0 -3.203125l-4.078125 0l0 -1.40625l4.078125 0l0 -2.59375l-3.40625 0.4375l-0.375 -1.40625q4.453125 -0.4375 7.046875 -1.328125l0.890625 1.40625q0.15625 0.375 -0.515625 0.21875l-2.15625 0.375l0 2.890625l3.640625 0l0 -4.671875l1.40625 0q0.59375 0.078125 0.078125 0.4375l0 4.234375l5.34375 0l0 1.40625l-5.34375 0q0 2.75 0.453125 4.609375q1.328125 -1.703125 2.21875 -3.34375l1.40625 0.8125q0.453125 0.234375 -0.296875 0.453125zm-1.109375 -4.828125q-0.671875 -0.734375 -1.859375 -1.78125l1.265625 -1.109375q1.265625 1.03125 1.859375 1.78125l-1.265625 1.109375zm8.609375 0.59375q0.96875 0.078125 0.296875 0.59375l0 11.515623l-1.484375 0l0 -9.812498q-0.59375 1.265625 -1.625 2.53125l-0.890625 -1.484375q2.375 -2.890625 3.484375 -8.234375l1.40625 0.359375q0.671875 0.234375 -0.078125 0.53125q-0.4375 1.84375 -1.109375 4.0zm12.984375 -4.296875l0 15.062498q0 1.265625 -1.25 1.265625l-1.859375 0l-0.296875 -1.40625l1.625 0q0.296875 0 0.296875 -0.3125l0 -8.078123l-2.140625 0l0 0.65625l-1.484375 0l0 -7.1875l5.109375 0zm-3.625 3.921875l0 1.421875l2.140625 0l0 -1.421875l-2.140625 0zm0 -2.734375l0 1.546875l2.140625 0l0 -1.546875l-2.140625 0zm-5.9375 0l0 1.546875l1.921875 0l0 -1.546875l-1.921875 0zm1.921875 5.34375l-1.921875 0l0 9.874998l-1.484375 0l0 -16.406248l4.890625 0l0 7.1875l-1.484375 0l0 -0.65625zm-1.921875 -2.609375l0 1.421875l1.921875 0l0 -1.421875l-1.921875 0zm11.875 3.640625q2.21875 -2.96875 3.328125 -8.234375l1.484375 0.296875q0.671875 0.296875 -0.0625 0.4375q-0.59375 2.53125 -1.265625 4.390625q0.890625 0.0625 0.21875 0.4375l0 11.515623l-1.484375 0l0 -9.437498q-0.734375 1.34375 -1.5625 2.375l-0.65625 -1.78125zm8.234375 -7.796875q0.59375 0.078125 0.078125 0.453125l0 2.890625l2.671875 0l0 1.40625l-2.671875 0l0 2.96875l1.703125 0l0 6.531248l-3.484375 0l0 1.203125l-1.484375 0l0 -7.734373l1.78125 0l0 -2.96875l-2.375 0l0 -1.40625l2.375 0l0 -3.34375l1.40625 0zm4.671875 5.28125q0.078125 2.890625 0.890625 5.40625q0.75 -2.375 0.890625 -5.40625l-1.78125 0zm0.96875 -4.609375q-0.296875 1.859375 -0.75 3.1875l4.3125 0l0 1.421875l-1.484375 0q-0.078125 4.0 -1.34375 6.828123q1.046875 1.40625 2.90625 2.515625l-0.59375 1.71875q-2.15625 -1.421875 -3.125 -2.828125q-1.265625 1.9375 -3.703125 3.125l-0.59375 -1.5625q2.21875 -0.96875 3.5625 -2.90625q-1.046875 -2.437498 -1.265625 -5.109373q-0.453125 1.25 -0.890625 1.78125l-0.8125 -1.265625q1.78125 -3.125 2.4375 -7.578125l1.5625 0.296875q0.296875 0.296875 -0.21875 0.375zm-7.34375 12.171873l2.0 0l0 -3.703123l-2.0 0l0 3.703123zm23.375 -8.390623q-0.75 2.078125 -2.375 3.9375l-1.109375 -1.328125q2.515625 -2.53125 3.1875 -7.203125l1.5625 0.515625q0.65625 0.296875 -0.078125 0.453125q-0.21875 1.03125 -0.59375 2.21875l5.34375 0l-0.375 10.093748q-0.078125 2.96875 -2.375 2.96875l-2.078125 0l-0.21875 -1.40625l1.921875 0q1.046875 0 1.125 -1.34375l0.359375 -8.906248l-4.296875 0zm0.890625 6.90625q-1.046875 -1.484375 -2.296875 -2.671875l1.25 -1.328125q1.484375 1.328125 2.375 2.59375l-1.328125 1.40625zm-8.765625 -8.3125q0.453125 -1.40625 0.828125 -3.265625l1.78125 0.671875q0.296875 0.296875 -0.234375 0.375q-0.21875 0.953125 -0.8125 2.21875l2.75 0l0 12.249998l-1.484375 0l0 -0.890625l-3.265625 0l0 1.484375l-1.484375 0l0 -12.843748l1.921875 0zm2.828125 1.40625l-3.265625 0l0 3.265625l3.265625 0l0 -3.265625zm0 4.6875l-3.265625 0l0 3.859373l3.265625 0l0 -3.859373zm20.78125 6.078123q0.296875 0 0.296875 -0.296875l0 -1.484375l-5.859375 0l0 -1.1875l5.859375 0l0 -1.1874981l-7.796875 0l0 -1.1875l7.796875 0l0 -1.109375l-5.859375 0l0 -1.1875l5.859375 0l0 -1.046875l-2.53125 0l-2.4375 0l0 -3.1875l4.96875 0l0 -0.96875l-7.34375 0l0 -1.1875l7.34375 0l0 -1.703125l1.40625 0q0.59375 0.078125 0.078125 0.453125l0 1.25l7.125 0l0 1.1875l-7.125 0l0 0.96875l4.828125 0l0 3.1875l-4.828125 0l0 1.046875l5.71875 0l0 2.296875l2.0 0l0 1.1875l-2.0 0l0 2.828123l-1.484375 0l0 -0.453125l-4.234375 0l0 2.015625q0 1.1875 -1.1875 1.1875l-1.640625 0l-0.21875 -1.421875l1.265625 0zm-3.421875 -9.578123l3.71875 0l0 -1.40625l-3.71875 0l0 1.40625zm5.203125 0l3.5625 0l0 -1.40625l-3.5625 0l0 1.40625zm0 6.609373l4.234375 0l0 -1.1874981l-4.234375 0l0 1.1874981zm4.234375 -2.374998l0 -1.109375l-4.234375 0l0 1.109375l4.234375 0z" fill-rule="nonzero"></path></g></svg>

