<?xml version="1.0" standalone="yes"?>

<svg version="1.1" viewBox="0.0 0.0 959.5853018372703 474.1758530183727" fill="none" stroke="none" stroke-linecap="square" stroke-miterlimit="10" xmlns="http://www.w3.org/2000/svg" xmlns:xlink="http://www.w3.org/1999/xlink"><clipPath id="p.0"><path d="m0 0l959.5853 0l0 474.17584l-959.5853 0l0 -474.17584z" clip-rule="nonzero"></path></clipPath><g clip-path="url(#p.0)"><path fill="#000000" fill-opacity="0.0" d="m0 0l959.5853 0l0 474.17584l-959.5853 0z" fill-rule="nonzero"></path><path fill="#000000" fill-opacity="0.0" d="m62.90551 405.66928l199.65353 0l0 -343.7795l199.65353 0" fill-rule="nonzero"></path><path stroke="#000000" stroke-width="1.0" stroke-linejoin="round" stroke-linecap="butt" d="m62.90551 405.66928l199.65353 0l0 -343.7795l199.65353 0" fill-rule="nonzero"></path><path fill="#000000" fill-opacity="0.0" d="m459.71652 405.66928l108.566925 0l0 -112.91336l108.566956 0" fill-rule="nonzero"></path><path stroke="#000000" stroke-width="1.0" stroke-linejoin="round" stroke-linecap="butt" d="m459.71652 405.66928l108.566925 0l0 -112.91336l108.566956 0" fill-rule="nonzero"></path><path fill="#000000" fill-opacity="0.0" d="m570.5512 292.75592l108.566895 0l0 -112.91341l108.566956 0" fill-rule="nonzero"></path><path stroke="#000000" stroke-width="1.0" stroke-linejoin="round" stroke-linecap="butt" d="m570.5512 292.75592l108.566895 0l0 -112.91341l108.566956 0" fill-rule="nonzero"></path><path fill="#000000" fill-opacity="0.0" d="m676.8504 179.84251l108.566895 0l0 -112.91338l108.566956 0" fill-rule="nonzero"></path><path stroke="#000000" stroke-width="1.0" stroke-linejoin="round" stroke-linecap="butt" d="m676.8504 179.84251l108.566895 0l0 -112.91338l108.566956 0" fill-rule="nonzero"></path><path fill="#000000" fill-opacity="0.0" d="m124.34121 407.76117l59.90551 0l0 49.921234l-59.90551 0z" fill-rule="nonzero"></path><path fill="#000000" d="m134.80995 434.68115l0 -13.59375l5.125 0q1.359375 0 2.078125 0.125q1.0 0.171875 1.671875 0.640625q0.671875 0.46875 1.078125 1.3125q0.421875 0.84375 0.421875 1.84375q0 1.734375 -1.109375 2.9375q-1.09375 1.203125 -3.984375 1.203125l-3.484375 0l0 5.53125l-1.796875 0zm1.796875 -7.140625l3.515625 0q1.75 0 2.46875 -0.640625q0.734375 -0.65625 0.734375 -1.828125q0 -0.859375 -0.4375 -1.46875q-0.421875 -0.609375 -1.125 -0.796875q-0.453125 -0.125 -1.671875 -0.125l-3.484375 0l0 4.859375zm10.693573 7.140625l0 -13.59375l1.8125 0l0 5.578125l7.0625 0l0 -5.578125l1.796875 0l0 13.59375l-1.796875 0l0 -6.40625l-7.0625 0l0 6.40625l-1.8125 0zm13.426071 0l0 -13.59375l5.125 0q1.359375 0 2.078125 0.125q1.0 0.171875 1.671875 0.640625q0.671875 0.46875 1.078125 1.3125q0.421875 0.84375 0.421875 1.84375q0 1.734375 -1.109375 2.9375q-1.09375 1.203125 -3.984375 1.203125l-3.484375 0l0 5.53125l-1.796875 0zm1.796875 -7.140625l3.515625 0q1.75 0 2.46875 -0.640625q0.734375 -0.65625 0.734375 -1.828125q0 -0.859375 -0.4375 -1.46875q-0.421875 -0.609375 -1.125 -0.796875q-0.453125 -0.125 -1.671875 -0.125l-3.484375 0l0 4.859375z" fill-rule="nonzero"></path><path fill="#000000" fill-opacity="0.0" d="m485.9895 405.66928l59.905518 0l0 49.921265l-59.905518 0z" fill-rule="nonzero"></path><path fill="#000000" d="m496.45825 432.5893l0 -13.59375l5.125 0q1.359375 0 2.078125 0.125q1.0 0.171875 1.671875 0.640625q0.671875 0.46875 1.078125 1.3125q0.421875 0.84375 0.421875 1.84375q0 1.734375 -1.109375 2.9375q-1.09375 1.203125 -3.984375 1.203125l-3.484375 0l0 5.53125l-1.796875 0zm1.796875 -7.140625l3.515625 0q1.75 0 2.46875 -0.640625q0.734375 -0.65625 0.734375 -1.828125q0 -0.859375 -0.4375 -1.46875q-0.421875 -0.609375 -1.125 -0.796875q-0.453125 -0.125 -1.671875 -0.125l-3.484375 0l0 4.859375zm10.693573 7.140625l0 -13.59375l1.8125 0l0 5.578125l7.0624695 0l0 -5.578125l1.796875 0l0 13.59375l-1.796875 0l0 -6.40625l-7.0624695 0l0 6.40625l-1.8125 0zm13.426056 0l0 -13.59375l5.125 0q1.359375 0 2.078125 0.125q1.0 0.171875 1.671875 0.640625q0.671875 0.46875 1.078125 1.3125q0.421875 0.84375 0.421875 1.84375q0 1.734375 -1.109375 2.9375q-1.09375 1.203125 -3.984375 1.203125l-3.484375 0l0 5.53125l-1.796875 0zm1.796875 -7.140625l3.515625 0q1.75 0 2.46875 -0.640625q0.734375 -0.65625 0.734375 -1.828125q0 -0.859375 -0.4375 -1.46875q-0.421875 -0.609375 -1.125 -0.796875q-0.453125 -0.125 -1.671875 -0.125l-3.484375 0l0 4.859375z" fill-rule="nonzero"></path><path fill="#000000" fill-opacity="0.0" d="m309.01837 19.968504l103.55905 0l0 49.921257l-103.55905 0z" fill-rule="nonzero"></path><path fill="#000000" d="m326.54962 41.091625l0 -1.40625l6.828125 0l0.234375 -0.21875l1.109375 0.8125q0.375 0.375 -0.15625 0.296875q-1.109375 2.671875 -2.671875 4.453125q1.046875 0.8125 4.3125 1.78125l-0.453125 1.5625q-3.265625 -1.109375 -4.890625 -2.296875q-2.078125 1.625 -4.3125 2.453125l-0.734375 -1.421875q2.21875 -0.59375 4.0 -2.0q-1.109375 -1.40625 -2.078125 -4.015625l-1.1875 0zm0.96875 -8.90625l5.5 0l0 4.15625q0 0.59375 0.515625 0.59375l0.515625 0q0.59375 0 0.59375 -1.40625l1.484375 0.375q-0.078125 2.453125 -1.703125 2.453125l-1.5625 0q-1.328125 0 -1.328125 -1.265625l0 -3.484375l-2.53125 0l0 1.78125q0 2.734375 -2.453125 4.078125l-0.8125 -1.1875q1.78125 -0.671875 1.78125 -3.046875l0 -3.046875zm-2.078125 16.109375l-1.265625 0l0 -0.4375l-3.03125 0l0 0.734375l-1.265625 0l0 -6.015625l5.5625 0l0 5.71875zm0.671875 -13.65625l0 1.40625l-6.984375 0l0 -1.40625l6.984375 0zm-1.046875 -2.671873l0 1.4062481l-4.890625 0l0 -1.4062481l4.890625 0zm0 5.265623l0 1.421875l-4.890625 0l0 -1.421875l4.890625 0zm0 2.609375l0 1.40625l-4.890625 0l0 -1.40625l4.890625 0zm-0.890625 3.921875l-3.03125 0l0 2.90625l3.03125 0l0 -2.90625zm6.6875 0.453125q1.265625 -1.484375 1.921875 -3.125l-3.625 0q0.59375 1.78125 1.703125 3.125zm18.78125 -6.609375l0 -5.937498l1.40625 0q0.734375 0.15625 0.078125 0.5156231l0 5.421875l3.78125 0l0 1.40625l-3.78125 0l0 9.21875l-1.484375 0l0 -9.21875l-4.015625 0l0 -1.40625l4.015625 0zm-4.609375 10.390625l-1.484375 0l0 -0.734375l-3.046875 0l0 1.03125l-1.484375 0l0 -6.078125l6.015625 0l0 5.78125zm-4.53125 -4.59375l0 2.671875l3.046875 0l0 -2.671875l-3.046875 0zm4.09375 -3.71875l0 1.40625l-5.125 0l0 -1.40625l5.125 0zm-5.125 -2.453125l5.125 0l0 1.421875l-5.125 0l0 -1.421875zm-1.40625 -2.4375l7.859375 0l0 1.40625l-7.859375 0l0 -1.40625zm6.53125 -2.671875l0 1.40625l-5.125 0l0 -1.40625l5.125 0zm17.65625 14.984375q4.671875 -0.890625 5.046875 -2.96875l-4.671875 0l0 -1.1875l4.890625 0l0 -1.1875l-1.625 0l-1.640625 0l0 -5.9375l1.71875 0l0 -1.40625l-2.75 0l0 -1.1875l2.75 0l0 -1.8593731l1.1875 0q0.59375 0.078125 0.0625 0.453125l0 1.4062481l2.234375 0l0 -1.7812481l1.1875 0q0.59375 0.078125 0.078125 0.4375l0 1.3437481l2.890625 0l0 1.1875l-2.890625 0l0 1.40625l1.78125 0l0 5.9375l-3.5 0l0 1.1875l5.046875 0l0 1.1875l-4.75 0q0.96875 2.0 5.046875 2.828125l-0.65625 1.5625q-3.5625 -0.96875 -5.28125 -3.5q-1.1875 2.609375 -5.484375 3.5l-0.671875 -1.421875zm-1.1875 -12.171875l2.375 0l0 1.40625l-2.375 0l0 1.9375q1.109375 0.734375 2.53125 2.515625l-1.046875 1.34375q-0.671875 -1.046875 -1.484375 -2.234375l0 8.6875l-1.484375 0l0 -7.859375q-0.890625 2.078125 -1.78125 3.1875l-1.109375 -1.1875q2.515625 -3.640625 2.890625 -6.390625l-2.453125 0l0 -1.40625l2.453125 0l0 -3.562498l1.40625 0q0.59375 0.078125 0.078125 0.453125l0 3.109373zm4.453125 2.078125l0 1.1875l5.71875 0l0 -1.1875l-5.71875 0zm0 2.375l0 1.1875l5.71875 0l0 -1.1875l-5.71875 0zm3.9375 -4.96875l-2.234375 0l0 1.40625l2.234375 0l0 -1.40625zm19.375 9.71875q0.953125 1.78125 1.703125 1.78125q0.296875 0 0.375 -0.4375l0.140625 -1.265625l1.640625 0.734375l-0.296875 1.78125q-0.234375 1.265625 -1.34375 1.265625q-2.21875 0 -3.78125 -3.046875q-1.484375 -2.890625 -1.5625 -8.15625l-9.125 0l0 -1.640625l9.046875 0l0 -3.406248l1.640625 0q0.734375 0.140625 0.078125 0.5937481l0 2.8125l5.1875 0l0 1.640625l-5.1875 0q0.296875 5.1875 1.484375 7.34375zm-2.90625 1.34375q-4.15625 0.890625 -8.375 1.625q-0.15625 0.671875 -0.53125 0.15625l-0.359375 -1.859375q1.84375 -0.15625 3.625 -0.453125l0 -4.21875l-2.96875 0l0 -1.421875l7.359375 0l0 1.421875l-2.90625 0l0 4.0q1.71875 -0.21875 3.9375 -0.671875l0.21875 1.421875zm3.421875 -13.359375q1.03125 0.515625 2.0 1.40625l-1.328125 1.109375q-0.75 -0.734375 -1.9375 -1.40625l1.265625 -1.109375z" fill-rule="nonzero"></path><path fill="#000000" fill-opacity="0.0" d="m610.5512 250.83464l103.55902 0l0 49.92128l-103.55902 0z" fill-rule="nonzero"></path><path fill="#000000" d="m620.5981 277.75464q1.40625 -2.0 2.734375 -5.421875l1.1875 0.890625q-0.953125 2.890625 -2.375 5.34375q0.078125 0.828125 -0.4375 0.296875l-1.109375 -1.109375zm10.53125 -2.75l-5.484375 0l0 -11.71875l5.484375 0l0 11.71875zm-1.265625 -8.3125l0 -2.0l-2.96875 0l0 2.0l2.96875 0zm0 3.34375l0 -1.9375l-2.96875 0l0 1.9375l2.96875 0zm0 3.5625l0 -2.15625l-2.96875 0l0 2.15625l2.96875 0zm-0.0625 1.5625q1.546875 1.25 2.515625 2.59375l-1.1875 1.046875q-0.890625 -1.34375 -2.296875 -2.6875l0.96875 -0.953125zm-1.5625 1.109375q0.21875 0.21875 -0.375 0.296875q-1.265625 1.484375 -2.96875 2.671875l-0.8125 -1.328125q1.859375 -1.265625 3.046875 -2.75l1.109375 1.109375zm5.71875 -1.5625l-1.484375 0l0 -9.9375l1.40625 0q0.59375 0.0625 0.078125 0.4375l0 9.5zm0.359375 4.390625l-0.296875 -1.421875l0.96875 0q0.296875 0 0.296875 -0.296875l0 -14.328125l1.40625 0q0.59375 0.078125 0.078125 0.453125l0 14.40625q0 1.1875 -1.1875 1.1875l-1.265625 0zm-11.796875 -15.8125q1.34375 0.65625 2.453125 1.703125l-0.96875 1.40625q-1.109375 -1.03125 -2.375 -1.78125l0.890625 -1.328125zm-0.671875 4.375q1.5625 0.8125 2.671875 1.703125l-0.953125 1.40625q-0.96875 -0.8125 -2.609375 -1.78125l0.890625 -1.328125zm34.96875 8.3125q-0.078125 1.265625 -0.453125 2.15625q-0.296875 0.734375 -1.03125 0.734375q-1.046875 0 -2.078125 -2.375q-1.34375 -3.046875 -1.640625 -8.984375l-5.34375 0l0 -1.40625l5.265625 0l0 -3.40625l1.421875 0q0.65625 0.140625 0.0625 0.4375l0 2.96875l3.265625 0l0 1.40625l-3.1875 0q0.375 5.28125 1.109375 7.359375q0.671875 1.921875 0.890625 1.921875q0.296875 0 0.453125 -1.703125l1.265625 0.890625zm-5.640625 -4.453125l-1.484375 0l0 3.859375l2.140625 -0.671875l0.296875 1.34375l-4.890625 1.546875q-0.21875 0.75 -0.453125 0.078125l-0.515625 -1.5625l1.9375 -0.4375l0 -4.15625l-1.5625 0l0 -1.40625l4.53125 0l0 1.40625zm-10.765625 -8.609375l4.828125 0l0 1.40625l-4.828125 0l0 -1.40625zm-0.96875 2.59375l6.234375 0l0 1.40625l-6.234375 0l0 -1.40625zm0.96875 2.59375l4.828125 0l0 1.421875l-4.828125 0l0 -1.421875zm0 2.609375l4.828125 0l0 1.40625l-4.828125 0l0 -1.40625zm3.5625 7.9375l-2.453125 0l0 0.75l-1.484375 0l0 -5.953125l5.421875 0l0 5.65625l-1.484375 0l0 -0.453125zm-2.453125 -4.015625l0 2.828125l2.453125 0l0 -2.828125l-2.453125 0zm12.984375 -11.34375q0.671875 0.59375 1.421875 1.546875l-1.1875 0.890625q-0.75 -1.109375 -1.34375 -1.703125l1.109375 -0.734375z" fill-rule="nonzero"></path><path fill="#000000" fill-opacity="0.0" d="m724.90814 137.92126l103.55902 0l0 49.92125l-103.55902 0z" fill-rule="nonzero"></path><path fill="#000000" d="m742.8144 151.62251q-2.8125 0.078125 -5.484375 0l-0.296875 -1.1875q7.640625 0.078125 11.34375 -0.734375l0.828125 1.328125q0.140625 0.375 -0.53125 0.15625l-4.375 0.296875l0 1.1875l7.203125 0l0 1.1875l-7.203125 0l0 1.109375l5.046875 0l0 5.71875l-5.046875 0l0 1.328125l5.5625 0l0 1.1875l-5.5625 0l0 1.484375l7.421875 0l0 1.203125l-16.46875 0l0 -1.203125l7.5625 0l0 -1.484375l-5.71875 0l0 -1.1875l5.71875 0l0 -1.328125l-2.515625 0l-2.453125 0l0 -5.71875l4.96875 0l0 -1.109375l-7.265625 0l0 -1.1875l7.265625 0l0 -1.046875zm-3.703125 5.71875l3.703125 0l0 -1.1875l-3.703125 0l0 1.1875zm0 2.15625l3.703125 0l0 -1.265625l-3.703125 0l0 1.265625zm5.1875 -2.15625l3.78125 0l0 -1.1875l-3.78125 0l0 1.1875zm3.78125 2.15625l0 -1.265625l-3.78125 0l0 1.265625l3.78125 0zm5.5 1.03125q2.078125 -3.03125 2.75 -6.078125l-2.234375 0l0 -1.40625l2.296875 0l0 -3.5625l1.421875 0q0.59375 0.0625 0.0625 0.4375l0 3.125l2.078125 0l0 1.40625l-2.078125 0l0 2.375q1.34375 0.8125 2.453125 1.78125l-0.8125 1.484375q-1.046875 -1.046875 -1.640625 -1.5625l0 8.171875l-1.484375 0l0 -8.3125q-0.4375 1.546875 -1.78125 3.40625l-1.03125 -1.265625zm8.75 6.09375l-1.25 0l0 -3.265625l-1.5625 0l0 -1.1875l1.5625 0l0 -4.453125l3.484375 0l0 -0.890625l-5.125 0l0 -1.1875l3.1875 0l0 -1.109375l-1.921875 0l0 -1.1875l1.921875 0l0 -0.96875l-2.671875 0l0 -1.1875l2.671875 0l0 -1.78125l1.1875 0q0.59375 0.078125 0.078125 0.4375l0 1.34375l2.453125 0l0 -1.78125l1.1875 0q0.59375 0.078125 0.078125 0.4375l0 1.34375l2.8125 0l0 1.1875l-2.8125 0l0 0.96875l2.0 0l0 1.1875l-2.0 0l0 1.109375l3.265625 0l0 1.1875l-5.046875 0l0 0.890625l3.5625 0l0 4.453125l1.546875 0l0 1.1875l-1.546875 0l0 2.078125q0 0.96875 -0.890625 0.96875l-1.421875 0l-0.140625 -1.40625l0.96875 0q0.21875 0 0.21875 -0.3125l0 -1.328125l-5.796875 0l0 3.265625zm1.5625 -13.28125l2.453125 0l0 -0.96875l-2.453125 0l0 0.96875zm0 2.296875l2.453125 0l0 -1.109375l-2.453125 0l0 1.109375zm1.9375 4.296875l2.296875 0l0 -1.03125l-2.296875 0l0 1.03125zm-3.5 0l2.234375 0l0 -1.03125l-2.234375 0l0 1.03125zm0 2.234375l2.234375 0l0 -1.046875l-2.234375 0l0 1.046875zm3.5 0l2.296875 0l0 -1.046875l-2.296875 0l0 1.046875z" fill-rule="nonzero"></path><path fill="#000000" fill-opacity="0.0" d="m787.68506 25.007874l103.55902 0l0 49.921257l-103.55902 0z" fill-rule="nonzero"></path><path fill="#000000" d="m805.2163 46.130997l0 -1.40625l6.828125 0l0.234375 -0.21875l1.109375 0.8125q0.375 0.375 -0.15625 0.296875q-1.109375 2.671875 -2.671875 4.453125q1.046875 0.8125 4.3125 1.78125l-0.453125 1.5625q-3.265625 -1.109375 -4.890625 -2.296875q-2.078125 1.625 -4.3125 2.453125l-0.734375 -1.421875q2.21875 -0.59375 4.0 -2.0q-1.109375 -1.40625 -2.078125 -4.015625l-1.1875 0zm0.96875 -8.90625l5.5 0l0 4.15625q0 0.59375 0.515625 0.59375l0.515625 0q0.59375 0 0.59375 -1.40625l1.484375 0.375q-0.078125 2.453125 -1.703125 2.453125l-1.5625 0q-1.328125 0 -1.328125 -1.265625l0 -3.484375l-2.53125 0l0 1.78125q0 2.734375 -2.453125 4.078125l-0.8125 -1.1875q1.78125 -0.671875 1.78125 -3.046875l0 -3.046875zm-2.078125 16.109375l-1.265625 0l0 -0.4375l-3.03125 0l0 0.734375l-1.265625 0l0 -6.015625l5.5625 0l0 5.71875zm0.671875 -13.65625l0 1.40625l-6.984375 0l0 -1.40625l6.984375 0zm-1.046875 -2.671875l0 1.40625l-4.890625 0l0 -1.40625l4.890625 0zm0 5.265625l0 1.421875l-4.890625 0l0 -1.421875l4.890625 0zm0 2.609375l0 1.40625l-4.890625 0l0 -1.40625l4.890625 0zm-0.890625 3.921875l-3.03125 0l0 2.90625l3.03125 0l0 -2.90625zm6.6875 0.453125q1.265625 -1.484375 1.921875 -3.125l-3.625 0q0.59375 1.78125 1.703125 3.125zm18.78125 -6.609375l0 -5.9375l1.40625 0q0.734375 0.15625 0.078125 0.515625l0 5.421875l3.78125 0l0 1.40625l-3.78125 0l0 9.21875l-1.484375 0l0 -9.21875l-4.015625 0l0 -1.40625l4.015625 0zm-4.609375 10.390625l-1.484375 0l0 -0.734375l-3.046875 0l0 1.03125l-1.484375 0l0 -6.078125l6.015625 0l0 5.78125zm-4.53125 -4.59375l0 2.671875l3.046875 0l0 -2.671875l-3.046875 0zm4.09375 -3.71875l0 1.40625l-5.125 0l0 -1.40625l5.125 0zm-5.125 -2.453125l5.125 0l0 1.421875l-5.125 0l0 -1.421875zm-1.40625 -2.4375l7.859375 0l0 1.40625l-7.859375 0l0 -1.40625zm6.53125 -2.671875l0 1.40625l-5.125 0l0 -1.40625l5.125 0zm17.65625 14.984375q4.671875 -0.890625 5.046875 -2.96875l-4.671875 0l0 -1.1875l4.890625 0l0 -1.1875l-1.625 0l-1.640625 0l0 -5.9375l1.71875 0l0 -1.40625l-2.75 0l0 -1.1875l2.75 0l0 -1.859375l1.1875 0q0.59375 0.078125 0.0625 0.453125l0 1.40625l2.234375 0l0 -1.78125l1.1875 0q0.59375 0.078125 0.078125 0.4375l0 1.34375l2.890625 0l0 1.1875l-2.890625 0l0 1.40625l1.78125 0l0 5.9375l-3.5 0l0 1.1875l5.046875 0l0 1.1875l-4.75 0q0.96875 2.0 5.046875 2.828125l-0.65625 1.5625q-3.5625 -0.96875 -5.28125 -3.5q-1.1875 2.609375 -5.484375 3.5l-0.671875 -1.421875zm-1.1875 -12.171875l2.375 0l0 1.40625l-2.375 0l0 1.9375q1.109375 0.734375 2.53125 2.515625l-1.046875 1.34375q-0.671875 -1.046875 -1.484375 -2.234375l0 8.6875l-1.484375 0l0 -7.859375q-0.890625 2.078125 -1.78125 3.1875l-1.109375 -1.1875q2.515625 -3.640625 2.890625 -6.390625l-2.453125 0l0 -1.40625l2.453125 0l0 -3.5625l1.40625 0q0.59375 0.078125 0.078125 0.453125l0 3.109375zm4.453125 2.078125l0 1.1875l5.71875 0l0 -1.1875l-5.71875 0zm0 2.375l0 1.1875l5.71875 0l0 -1.1875l-5.71875 0zm3.9375 -4.96875l-2.234375 0l0 1.40625l2.234375 0l0 -1.40625zm19.375 9.71875q0.953125 1.78125 1.703125 1.78125q0.296875 0 0.375 -0.4375l0.140625 -1.265625l1.640625 0.734375l-0.296875 1.78125q-0.234375 1.265625 -1.34375 1.265625q-2.21875 0 -3.78125 -3.046875q-1.484375 -2.890625 -1.5625 -8.15625l-9.125 0l0 -1.640625l9.046875 0l0 -3.40625l1.640625 0q0.734375 0.140625 0.078125 0.59375l0 2.8125l5.1875 0l0 1.640625l-5.1875 0q0.296875 5.1875 1.484375 7.34375zm-2.90625 1.34375q-4.15625 0.890625 -8.375 1.625q-0.15625 0.671875 -0.53125 0.15625l-0.359375 -1.859375q1.84375 -0.15625 3.625 -0.453125l0 -4.21875l-2.96875 0l0 -1.421875l7.359375 0l0 1.421875l-2.90625 0l0 4.0q1.71875 -0.21875 3.9375 -0.671875l0.21875 1.421875zm3.421875 -13.359375q1.03125 0.515625 2.0 1.40625l-1.328125 1.109375q-0.75 -0.734375 -1.9375 -1.40625l1.265625 -1.109375z" fill-rule="nonzero"></path></g></svg>

