<?xml version="1.0" standalone="yes"?>

<svg version="1.1" viewBox="0.0 0.0 954.3700787401575 103.38057742782152" fill="none" stroke="none" stroke-linecap="square" stroke-miterlimit="10" xmlns="http://www.w3.org/2000/svg" xmlns:xlink="http://www.w3.org/1999/xlink"><clipPath id="p.0"><path d="m0 0l954.37006 0l0 103.38058l-954.37006 0l0 -103.38058z" clip-rule="nonzero"></path></clipPath><g clip-path="url(#p.0)"><path fill="#000000" fill-opacity="0.0" d="m0 0l954.37006 0l0 103.38058l-954.37006 0z" fill-rule="nonzero"></path><path fill="#cfe2f3" d="m18.776903 19.482939l114.110245 0l0 59.2126l-114.110245 0z" fill-rule="nonzero"></path><path stroke="#000000" stroke-width="1.0" stroke-linejoin="round" stroke-linecap="butt" d="m18.776903 19.482939l114.110245 0l0 59.2126l-114.110245 0z" fill-rule="nonzero"></path><path fill="#000000" d="m43.33202 45.399864q-0.828125 1.328125 -2.015625 2.296875l-1.109375 -1.109375q2.296875 -1.9375 2.828125 -4.90625l1.40625 0.453125q0.671875 0.21875 0 0.4375q-0.21875 0.59375 -0.515625 1.40625l2.890625 0l0 -2.96875l1.40625 0q0.59375 0.078125 0.078125 0.453125l0 2.515625l5.125 0l0 1.421875l-5.125 0l0 2.8125l6.96875 0l0 1.40625l-5.265625 0l0 5.34375q0 0.59375 0.515625 0.59375l2.453125 0q0.59375 0 0.671875 -0.515625l0.140625 -1.40625l1.5625 0.296875l-0.140625 1.265625q-0.234375 1.78125 -1.5625 1.78125l-3.859375 0q-1.265625 0 -1.265625 -1.265625l0 -6.09375l-2.15625 0q0 7.140625 -6.53125 7.953125l-0.65625 -1.640625q5.5625 -0.59375 5.5625 -6.3125l-5.34375 0l0 -1.40625l7.421875 0l0 -2.8125l-3.484375 0zm21.671879 7.78125q0.140625 1.484375 0.140625 2.984375l-1.4062538 0.0625q0 -1.484375 -0.15625 -2.96875l1.4218788 -0.078125zm1.703125 2.75q-0.296875 -1.703125 -0.59375 -2.8125l1.1875 -0.15625q0.515625 1.046875 0.734375 2.75l-1.328125 0.21875zm3.109375 -0.375q-0.359375 -1.328125 -1.109375 -2.59375l1.34375 -0.296875q0.65625 0.890625 1.1875 2.53125l-1.421875 0.359375zm0.375 2.015625l-0.4375 -1.40625l1.625 0q1.34375 0 1.40625 -1.796875l0.078125 -2.21875l-10.312504 0l-1.265625 0.890625l1.1875 0.296875q-0.375 1.921875 -1.1875 3.421875l-1.5625 -0.53125q0.828125 -1.40625 1.1875 -2.890625q-0.953125 0.59375 -2.078125 1.109375l-1.03125 -1.03125q3.34375 -1.421875 5.125 -3.421875l-2.234375 0l0 -5.78125l1.484375 0.296875l3.2656288 -0.75l0.453125 1.046875q0.140625 0.65625 -0.375 0.21875l-3.3437538 0.515625l0 0.96875l3.6406288 0l0 1.1875l-3.6406288 0l0 1.109375l8.468754 0l0 -1.109375l-3.796875 0l0 -1.1875l3.796875 0l0 -1.046875l-3.796875 0l0 -1.1875l5.28125 0l0 5.71875l-7.65625 0l-0.8125038 0.96875l10.687504 0l-0.078125 3.40625q-0.0625 3.203125 -2.4375 3.203125l-1.640625 0zm2.53125 -14.328125l-12.703129 0l0 2.375l-1.484375 0l0 -3.5625l6.906254 0l0 -1.5625l1.640625 0q0.734375 0.15625 0.0625 0.59375l0 0.96875l7.0625 0l0 3.40625l-1.484375 0l0 -2.21875zm4.15625 12.765625q1.40625 -2.0 2.734375 -5.421875l1.1875 0.890625q-0.953125 2.890625 -2.375 5.34375q0.078125 0.828125 -0.4375 0.296875l-1.109375 -1.109375zm10.531242 -2.75l-5.4843674 0l0 -11.71875l5.4843674 0l0 11.71875zm-1.265625 -8.3125l0 -2.0l-2.96875 0l0 2.0l2.96875 0zm0 3.34375l0 -1.9375l-2.96875 0l0 1.9375l2.96875 0zm0 3.5625l0 -2.15625l-2.96875 0l0 2.15625l2.96875 0zm-0.0625 1.5625q1.546875 1.25 2.515625 2.59375l-1.1875 1.046875q-0.890625 -1.34375 -2.296875 -2.6875l0.96875 -0.953125zm-1.5625 1.109375q0.21875 0.21875 -0.375 0.296875q-1.265625 1.484375 -2.9687424 2.671875l-0.8125 -1.328125q1.859375 -1.265625 3.0468674 -2.75l1.109375 1.109375zm5.71875 -1.5625l-1.484375 0l0 -9.9375l1.40625 0q0.59375 0.0625 0.078125 0.4375l0 9.5zm0.359375 4.390625l-0.296875 -1.421875l0.96875 0q0.296875 0 0.296875 -0.296875l0 -14.328125l1.40625 0q0.59375 0.078125 0.078125 0.453125l0 14.40625q0 1.1875 -1.1875 1.1875l-1.265625 0zm-11.796867 -15.8125q1.34375 0.65625 2.453125 1.703125l-0.96875 1.40625q-1.109375 -1.03125 -2.375 -1.78125l0.890625 -1.328125zm-0.671875 4.375q1.5625 0.8125 2.671875 1.703125l-0.953125 1.40625q-0.96875 -0.8125 -2.609375 -1.78125l0.890625 -1.328125zm34.968742 8.3125q-0.078125 1.265625 -0.453125 2.15625q-0.296875 0.734375 -1.03125 0.734375q-1.046875 0 -2.078125 -2.375q-1.34375 -3.046875 -1.640625 -8.984375l-5.34375 0l0 -1.40625l5.265625 0l0 -3.40625l1.421875 0q0.65625 0.140625 0.0625 0.4375l0 2.96875l3.265625 0l0 1.40625l-3.1875 0q0.375 5.28125 1.109375 7.359375q0.671875 1.921875 0.890625 1.921875q0.296875 0 0.453125 -1.703125l1.265625 0.890625zm-5.640625 -4.453125l-1.484375 0l0 3.859375l2.140625 -0.671875l0.296875 1.34375l-4.890625 1.546875q-0.21875 0.75 -0.453125 0.078125l-0.515625 -1.5625l1.9375 -0.4375l0 -4.15625l-1.5625 0l0 -1.40625l4.53125 0l0 1.40625zm-10.765625 -8.609375l4.828125 0l0 1.40625l-4.828125 0l0 -1.40625zm-0.96875 2.59375l6.234375 0l0 1.40625l-6.234375 0l0 -1.40625zm0.96875 2.59375l4.828125 0l0 1.421875l-4.828125 0l0 -1.421875zm0 2.609375l4.828125 0l0 1.40625l-4.828125 0l0 -1.40625zm3.5625 7.9375l-2.453125 0l0 0.75l-1.484375 0l0 -5.953125l5.421875 0l0 5.65625l-1.484375 0l0 -0.453125zm-2.453125 -4.015625l0 2.828125l2.453125 0l0 -2.828125l-2.453125 0zm12.984375 -11.34375q0.671875 0.59375 1.421875 1.546875l-1.1875 0.890625q-0.75 -1.109375 -1.34375 -1.703125l1.109375 -0.734375z" fill-rule="nonzero"></path><path fill="#ff0000" d="m177.04462 19.482939l114.11023 0l0 59.2126l-114.11023 0z" fill-rule="nonzero"></path><path stroke="#000000" stroke-width="1.0" stroke-linejoin="round" stroke-linecap="butt" d="m177.04462 19.482939l114.11023 0l0 59.2126l-114.11023 0z" fill-rule="nonzero"></path><path fill="#ffffff" d="m223.19348 49.556114q-1.046875 0.0625 -2.078125 0.21875l0 7.875l-1.484375 0l0 -7.734375q-1.40625 0.15625 -2.828125 0.234375q-0.296875 0.734375 -0.515625 0l-0.21875 -1.484375l1.484375 0q0.734375 -0.59375 1.625 -1.78125q-1.328125 -1.1875 -2.8125 -2.3125l0.96875 -1.109375l0.59375 0.453125q0.59375 -0.828125 2.140625 -3.34375l1.125 0.8125q0.515625 0.515625 -0.15625 0.515625q-0.96875 1.421875 -2.078125 2.828125l1.1875 0.96875q1.1875 -1.421875 2.296875 -2.828125l0.96875 0.8125q0.515625 0.53125 -0.140625 0.53125q-1.9375 2.296875 -3.859375 4.375q1.625 -0.078125 3.265625 -0.21875q-0.234375 -0.53125 -0.75 -1.484375l1.34375 -0.53125q0.953125 1.34375 1.546875 3.421875l-1.328125 0.671875l-0.296875 -0.890625zm-4.671875 1.84375q0.59375 0.078125 0.0625 0.453125q-0.21875 2.21875 -0.8125 4.53125l-1.484375 -0.59375q0.59375 -2.078125 0.890625 -4.6875l1.34375 0.296875zm9.125 -6.96875l-3.484375 0l0 -1.40625l8.453125 0l0 1.40625l-3.484375 0l0 10.765625l4.0 0l0 1.40625l-9.859375 0l0 -1.40625l4.375 0l0 -10.765625zm-4.96875 10.3125q-0.296875 -1.921875 -0.671875 -3.40625l1.265625 -0.453125q0.59375 1.5625 0.8125 3.421875l-1.40625 0.4375zm19.59375 -9.34375q-0.453125 -0.375 -1.265625 -0.75l0.59375 -1.03125q0.8125 0.296875 1.40625 0.734375l0.75 -1.1875l-2.828125 0l0 -1.1875l3.421875 0l0.359375 -0.375l0.890625 0.890625q0.453125 0.375 -0.140625 0.375q-0.890625 1.703125 -1.9375 3.1875l4.609375 0q-1.703125 -1.921875 -2.671875 -4.671875l1.265625 -0.4375q0.4375 1.109375 0.890625 1.921875q0.890625 -0.8125 1.546875 -1.625l1.265625 0.890625q0.296875 0.359375 -0.296875 0.21875l-1.859375 1.5625q0.453125 0.59375 0.828125 0.953125q0.8125 -0.8125 1.703125 -2.0l1.109375 0.8125q0.453125 0.53125 -0.21875 0.375l-1.78125 1.640625q1.1875 1.109375 2.75 2.078125l-1.125 1.25q-1.546875 -1.03125 -2.8125 -2.375l0 0.59375l-5.640625 0l0 -0.59375q-0.8125 1.265625 -2.75 2.671875l-0.890625 -1.1875q1.859375 -1.1875 2.828125 -2.734375zm4.296875 10.234375q0.453125 -0.8125 0.96875 -2.0l1.484375 0.4375q0.296875 0.296875 -0.21875 0.375l-0.671875 1.1875l3.5625 0l0 1.421875l-11.65625 0l0 -1.421875l3.484375 0q-0.0625 -0.515625 -0.65625 -1.5625l1.40625 -0.4375q0.59375 0.96875 0.890625 2.0l1.40625 0zm-7.640625 -8.015625l0 3.78125q1.625 1.125 2.515625 2.3125l-1.03125 1.109375q-0.8125 -1.109375 -1.78125 -1.859375q-0.890625 3.046875 -2.296875 4.453125l-1.046875 -1.1875q2.375 -2.59375 2.375 -6.375l0 -8.84375l1.1875 0q0.890625 0.15625 0.078125 0.53125l0 4.21875l1.1875 -1.40625l1.109375 1.109375q0.078125 0.375 -0.375 0.234375l-1.921875 1.921875zm2.671875 1.109375l8.6875 0l0 4.3125l-8.6875 0l0 -4.3125zm1.265625 1.1875l0 1.9375l6.15625 0l0 -1.9375l-6.15625 0zm-5.71875 -4.890625q0.375 0.140625 -0.078125 0.4375q-0.375 2.671875 -1.03125 5.34375l-1.34375 -0.8125q0.75 -2.375 1.046875 -5.34375l1.40625 0.375z" fill-rule="nonzero"></path><path fill="#cfe2f3" d="m335.31235 19.482939l114.11023 0l0 59.2126l-114.11023 0z" fill-rule="nonzero"></path><path stroke="#000000" stroke-width="1.0" stroke-linejoin="round" stroke-linecap="butt" d="m335.31235 19.482939l114.11023 0l0 59.2126l-114.11023 0z" fill-rule="nonzero"></path><path fill="#000000" d="m368.0237 55.85299q0.296875 0 0.296875 -0.296875l0 -2.4375l-9.046875 0l0 4.375l-1.484375 0l0 -4.375l-2.453125 0l0 -1.421875l2.453125 0l0 -6.671875l5.265625 0l0 -1.9375l-7.28125 0l0 -1.40625l16.03125 0l0 1.40625l-7.265625 0l0 1.9375l5.265625 0l0 6.671875l2.53125 0l0 1.421875l-2.53125 0l0 3.1875q0 0.96875 -1.03125 0.96875l-2.53125 0l-0.296875 -1.421875l2.078125 0zm0.296875 -7.484375l0 -1.9375l-3.78125 0l0 1.9375l3.78125 0zm-5.265625 0l0 -1.9375l-3.78125 0l0 1.9375l3.78125 0zm5.265625 3.328125l0 -1.921875l-3.78125 0l0 1.921875l3.78125 0zm-5.265625 0l0 -1.921875l-3.78125 0l0 1.921875l3.78125 0zm18.484375 1.484375q0.140625 1.484375 0.140625 2.984375l-1.40625 0.0625q0 -1.484375 -0.15625 -2.96875l1.421875 -0.078125zm1.703125 2.75q-0.296875 -1.703125 -0.59375 -2.8125l1.1875 -0.15625q0.515625 1.046875 0.734375 2.75l-1.328125 0.21875zm3.109375 -0.375q-0.359375 -1.328125 -1.109375 -2.59375l1.34375 -0.296875q0.65625 0.890625 1.1875 2.53125l-1.421875 0.359375zm0.375 2.015625l-0.4375 -1.40625l1.625 0q1.34375 0 1.40625 -1.796875l0.078125 -2.21875l-10.3125 0l-1.265625 0.890625l1.1875 0.296875q-0.375 1.921875 -1.1875 3.421875l-1.5625 -0.53125q0.828125 -1.40625 1.1875 -2.890625q-0.953125 0.59375 -2.078125 1.109375l-1.03125 -1.03125q3.34375 -1.421875 5.125 -3.421875l-2.234375 0l0 -5.78125l1.484375 0.296875l3.265625 -0.75l0.453125 1.046875q0.140625 0.65625 -0.375 0.21875l-3.34375 0.515625l0 0.96875l3.640625 0l0 1.1875l-3.640625 0l0 1.109375l8.46875 0l0 -1.109375l-3.796875 0l0 -1.1875l3.796875 0l0 -1.046875l-3.796875 0l0 -1.1875l5.28125 0l0 5.71875l-7.65625 0l-0.8125 0.96875l10.6875 0l-0.078125 3.40625q-0.0625 3.203125 -2.4375 3.203125l-1.640625 0zm2.53125 -14.328125l-12.703125 0l0 2.375l-1.484375 0l0 -3.5625l6.90625 0l0 -1.5625l1.640625 0q0.734375 0.15625 0.0625 0.59375l0 0.96875l7.0625 0l0 3.40625l-1.484375 0l0 -2.21875zm10.234375 8.828125l-1.625 -1.859375l0 7.4375l-1.484375 0l0 -7.0625q-1.125 2.078125 -2.375 3.1875l-0.96875 -1.40625q2.515625 -2.453125 3.34375 -5.5625l-2.75 0l0 -1.40625l2.75 0l0 -2.078125l-2.3125 0.359375l-0.4375 -1.484375q3.5625 -0.59375 5.71875 -1.40625l1.03125 1.40625q0.078125 0.53125 -0.4375 0.234375l-2.078125 0.59375l0 2.375l2.671875 0l0 1.40625l-2.671875 0l0 1.484375q1.1875 0.8125 2.734375 2.453125l-1.109375 1.328125zm6.609375 -1.703125l0 1.921875l3.109375 0l0 1.421875l-3.109375 0l0 2.0l4.15625 0l0 1.40625l-10.546875 0l0 -1.40625l4.90625 0l0 -2.0l-3.34375 0l0 -1.421875l3.34375 0l0 -1.921875l-3.640625 0l0 -1.40625l8.765625 0l0 1.40625l-3.640625 0zm1.703125 -7.28125l-4.671875 0l0 2.671875l4.671875 0l0 -2.671875zm0 4.75l0 -0.65625l-4.671875 0l0 0.734375l-1.484375 0l0 -6.234375l7.640625 0l0 6.15625l-1.484375 0zm17.375 5.421875q0.953125 1.78125 1.703125 1.78125q0.296875 0 0.375 -0.4375l0.140625 -1.265625l1.640625 0.734375l-0.296875 1.78125q-0.234375 1.265625 -1.34375 1.265625q-2.21875 0 -3.78125 -3.046875q-1.484375 -2.890625 -1.5625 -8.15625l-9.125 0l0 -1.640625l9.046875 0l0 -3.40625l1.640625 0q0.734375 0.140625 0.078125 0.59375l0 2.8125l5.1875 0l0 1.640625l-5.1875 0q0.296875 5.1875 1.484375 7.34375zm-2.90625 1.34375q-4.15625 0.890625 -8.375 1.625q-0.15625 0.671875 -0.53125 0.15625l-0.359375 -1.859375q1.84375 -0.15625 3.625 -0.453125l0 -4.21875l-2.96875 0l0 -1.421875l7.359375 0l0 1.421875l-2.90625 0l0 4.0q1.71875 -0.21875 3.9375 -0.671875l0.21875 1.421875zm3.421875 -13.359375q1.03125 0.515625 2.0 1.40625l-1.328125 1.109375q-0.75 -0.734375 -1.9375 -1.40625l1.265625 -1.109375z" fill-rule="nonzero"></path><path fill="#6aa84f" d="m502.85565 19.482939l114.11023 0l0 59.2126l-114.11023 0z" fill-rule="nonzero"></path><path stroke="#000000" stroke-width="1.0" stroke-linejoin="round" stroke-linecap="butt" d="m502.85565 19.482939l114.11023 0l0 59.2126l-114.11023 0z" fill-rule="nonzero"></path><path fill="#ffffff" d="m551.0045 52.88424q-0.734375 -1.625 -1.40625 -2.8125l1.109375 -0.671875q1.046875 1.34375 1.640625 2.828125l-1.34375 0.65625zm7.34375 3.9375q-2.140625 -1.5625 -3.921875 -4.234375l0 3.9375q0 1.1875 -0.96875 1.1875l-1.640625 0l-0.4375 -1.40625l1.265625 0q0.296875 0 0.296875 -0.296875l0 -1.78125l-3.5625 2.0q-0.078125 0.671875 -0.53125 0.234375l-0.953125 -1.34375q2.515625 -1.046875 4.515625 -2.15625l0.53125 0.671875l0 -4.75l-4.015625 0l0.375 0.890625l-1.34375 0.671875l-0.296875 -0.828125l-1.625 0.15625l0 7.9375l-1.265625 0l0 -7.796875l-2.078125 0.15625q-0.375 0.59375 -0.59375 0l-0.4375 -1.40625l1.84375 0q0.59375 -0.890625 1.1875 -1.9375q-1.1875 -1.265625 -3.03125 -2.8125l0.8125 -1.1875l0.890625 0.65625q1.109375 -1.546875 1.859375 -3.1875l1.25 0.671875q0.75 0.375 -0.0625 0.515625q-0.96875 1.640625 -1.9375 2.96875l1.046875 1.046875q0.890625 -1.421875 1.625 -2.828125l1.1875 0.8125q0.515625 0.453125 -0.140625 0.53125q-1.5625 2.59375 -3.125 4.75l2.15625 -0.078125l-0.671875 -1.1875l1.1875 -0.671875q0.671875 1.046875 1.109375 1.9375l0 -0.96875l5.046875 0l0.453125 -1.78125l-3.1875 0l-0.296875 0.890625l-1.484375 -0.15625l1.84375 -6.375l1.34375 0.296875q0.734375 0.296875 -0.078125 0.59375l-0.21875 0.890625l2.890625 0l0.296875 -0.515625l1.34375 0.953125q0.4375 0.296875 -0.234375 0.59375l-1.109375 4.609375l3.484375 0l0 1.1875l-4.671875 0q0.375 1.625 1.34375 3.046875q0.8125 -0.96875 1.703125 -2.375l1.1875 0.8125q0.515625 0.515625 -0.21875 0.515625q-0.96875 1.109375 -1.859375 2.0q1.40625 1.640625 3.109375 2.609375l-1.1875 1.328125zm-16.625 -1.109375q0.671875 -2.15625 0.890625 -4.828125l1.34375 0.21875q0.671875 0.15625 0.078125 0.53125q-0.296875 2.515625 -0.890625 4.671875l-1.421875 -0.59375zm5.640625 -0.96875q-0.140625 -1.921875 -0.515625 -3.5625l1.34375 -0.21875q0.4375 1.625 0.65625 3.34375l-1.484375 0.4375zm4.09375 -10.015625l3.1875 0l0.296875 -1.484375l-3.046875 0l-0.4375 1.484375zm16.625 0.671875q-0.453125 -0.375 -1.265625 -0.75l0.59375 -1.03125q0.8125 0.296875 1.40625 0.734375l0.75 -1.1875l-2.828125 0l0 -1.1875l3.421875 0l0.359375 -0.375l0.890625 0.890625q0.453125 0.375 -0.140625 0.375q-0.890625 1.703125 -1.9375 3.1875l4.609375 0q-1.703125 -1.921875 -2.671875 -4.671875l1.265625 -0.4375q0.4375 1.109375 0.890625 1.921875q0.890625 -0.8125 1.546875 -1.625l1.265625 0.890625q0.296875 0.359375 -0.296875 0.21875l-1.859375 1.5625q0.453125 0.59375 0.828125 0.953125q0.8125 -0.8125 1.703125 -2.0l1.109375 0.8125q0.453125 0.53125 -0.21875 0.375l-1.78125 1.640625q1.1875 1.109375 2.75 2.078125l-1.125 1.25q-1.546875 -1.03125 -2.8125 -2.375l0 0.59375l-5.640625 0l0 -0.59375q-0.8125 1.265625 -2.75 2.671875l-0.890625 -1.1875q1.859375 -1.1875 2.828125 -2.734375zm4.296875 10.234375q0.453125 -0.8125 0.96875 -2.0l1.484375 0.4375q0.296875 0.296875 -0.21875 0.375l-0.671875 1.1875l3.5625 0l0 1.421875l-11.65625 0l0 -1.421875l3.484375 0q-0.0625 -0.515625 -0.65625 -1.5625l1.40625 -0.4375q0.59375 0.96875 0.890625 2.0l1.40625 0zm-7.640625 -8.015625l0 3.78125q1.625 1.125 2.515625 2.3125l-1.03125 1.109375q-0.8125 -1.109375 -1.78125 -1.859375q-0.890625 3.046875 -2.296875 4.453125l-1.046875 -1.1875q2.375 -2.59375 2.375 -6.375l0 -8.84375l1.1875 0q0.890625 0.15625 0.078125 0.53125l0 4.21875l1.1875 -1.40625l1.109375 1.109375q0.078125 0.375 -0.375 0.234375l-1.921875 1.921875zm2.671875 1.109375l8.6875 0l0 4.3125l-8.6875 0l0 -4.3125zm1.265625 1.1875l0 1.9375l6.15625 0l0 -1.9375l-6.15625 0zm-5.71875 -4.890625q0.375 0.140625 -0.078125 0.4375q-0.375 2.671875 -1.03125 5.34375l-1.34375 -0.8125q0.75 -2.375 1.046875 -5.34375l1.40625 0.375z" fill-rule="nonzero"></path><path fill="#cfe2f3" d="m666.1207 19.482939l114.11023 0l0 59.2126l-114.11023 0z" fill-rule="nonzero"></path><path stroke="#000000" stroke-width="1.0" stroke-linejoin="round" stroke-linecap="butt" d="m666.1207 19.482939l114.11023 0l0 59.2126l-114.11023 0z" fill-rule="nonzero"></path><path fill="#000000" d="m713.0821 42.79049q-2.8125 0.078125 -5.484375 0l-0.296875 -1.1875q7.640625 0.078125 11.34375 -0.734375l0.828125 1.328125q0.140625 0.375 -0.53125 0.15625l-4.375 0.296875l0 1.1875l7.203125 0l0 1.1875l-7.203125 0l0 1.109375l5.046875 0l0 5.71875l-5.046875 0l0 1.328125l5.5625 0l0 1.1875l-5.5625 0l0 1.484375l7.421875 0l0 1.203125l-16.46875 0l0 -1.203125l7.5625 0l0 -1.484375l-5.71875 0l0 -1.1875l5.71875 0l0 -1.328125l-2.515625 0l-2.453125 0l0 -5.71875l4.96875 0l0 -1.109375l-7.265625 0l0 -1.1875l7.265625 0l0 -1.046875zm-3.703125 5.71875l3.703125 0l0 -1.1875l-3.703125 0l0 1.1875zm0 2.15625l3.703125 0l0 -1.265625l-3.703125 0l0 1.265625zm5.1875 -2.15625l3.78125 0l0 -1.1875l-3.78125 0l0 1.1875zm3.78125 2.15625l0 -1.265625l-3.78125 0l0 1.265625l3.78125 0zm5.5 1.03125q2.078125 -3.03125 2.75 -6.078125l-2.234375 0l0 -1.40625l2.296875 0l0 -3.5625l1.421875 0q0.59375 0.0625 0.0625 0.4375l0 3.125l2.078125 0l0 1.40625l-2.078125 0l0 2.375q1.34375 0.8125 2.453125 1.78125l-0.8125 1.484375q-1.046875 -1.046875 -1.640625 -1.5625l0 8.171875l-1.484375 0l0 -8.3125q-0.4375 1.546875 -1.78125 3.40625l-1.03125 -1.265625zm8.75 6.09375l-1.25 0l0 -3.265625l-1.5625 0l0 -1.1875l1.5625 0l0 -4.453125l3.484375 0l0 -0.890625l-5.125 0l0 -1.1875l3.1875 0l0 -1.109375l-1.921875 0l0 -1.1875l1.921875 0l0 -0.96875l-2.671875 0l0 -1.1875l2.671875 0l0 -1.78125l1.1875 0q0.59375 0.078125 0.078125 0.4375l0 1.34375l2.453125 0l0 -1.78125l1.1875 0q0.59375 0.078125 0.078125 0.4375l0 1.34375l2.8125 0l0 1.1875l-2.8125 0l0 0.96875l2.0 0l0 1.1875l-2.0 0l0 1.109375l3.265625 0l0 1.1875l-5.046875 0l0 0.890625l3.5625 0l0 4.453125l1.546875 0l0 1.1875l-1.546875 0l0 2.078125q0 0.96875 -0.890625 0.96875l-1.421875 0l-0.140625 -1.40625l0.96875 0q0.21875 0 0.21875 -0.3125l0 -1.328125l-5.796875 0l0 3.265625zm1.5625 -13.28125l2.453125 0l0 -0.96875l-2.453125 0l0 0.96875zm0 2.296875l2.453125 0l0 -1.109375l-2.453125 0l0 1.109375zm1.9375 4.296875l2.296875 0l0 -1.03125l-2.296875 0l0 1.03125zm-3.5 0l2.234375 0l0 -1.03125l-2.234375 0l0 1.03125zm0 2.234375l2.234375 0l0 -1.046875l-2.234375 0l0 1.046875zm3.5 0l2.296875 0l0 -1.046875l-2.296875 0l0 1.046875z" fill-rule="nonzero"></path><path fill="#6aa84f" d="m828.6667 19.482939l114.11023 0l0 59.2126l-114.11023 0z" fill-rule="nonzero"></path><path stroke="#000000" stroke-width="1.0" stroke-linejoin="round" stroke-linecap="butt" d="m828.6667 19.482939l114.11023 0l0 59.2126l-114.11023 0z" fill-rule="nonzero"></path><path fill="#ffffff" d="m876.81555 52.88424q-0.734375 -1.625 -1.40625 -2.8125l1.109375 -0.671875q1.046875 1.34375 1.640625 2.828125l-1.34375 0.65625zm7.34375 3.9375q-2.140625 -1.5625 -3.921875 -4.234375l0 3.9375q0 1.1875 -0.96875 1.1875l-1.640625 0l-0.4375 -1.40625l1.265625 0q0.296875 0 0.296875 -0.296875l0 -1.78125l-3.5625 2.0q-0.078125 0.671875 -0.53125 0.234375l-0.953125 -1.34375q2.515625 -1.046875 4.515625 -2.15625l0.53125 0.671875l0 -4.75l-4.015625 0l0.375 0.890625l-1.34375 0.671875l-0.296875 -0.828125l-1.625 0.15625l0 7.9375l-1.265625 0l0 -7.796875l-2.078125 0.15625q-0.375 0.59375 -0.59375 0l-0.4375 -1.40625l1.84375 0q0.59375 -0.890625 1.1875 -1.9375q-1.1875 -1.265625 -3.03125 -2.8125l0.8125 -1.1875l0.890625 0.65625q1.109375 -1.546875 1.859375 -3.1875l1.25 0.671875q0.75 0.375 -0.0625 0.515625q-0.96875 1.640625 -1.9375 2.96875l1.046875 1.046875q0.890625 -1.421875 1.625 -2.828125l1.1875 0.8125q0.515625 0.453125 -0.140625 0.53125q-1.5625 2.59375 -3.125 4.75l2.15625 -0.078125l-0.671875 -1.1875l1.1875 -0.671875q0.671875 1.046875 1.109375 1.9375l0 -0.96875l5.046875 0l0.453125 -1.78125l-3.1875 0l-0.296875 0.890625l-1.484375 -0.15625l1.84375 -6.375l1.34375 0.296875q0.734375 0.296875 -0.078125 0.59375l-0.21875 0.890625l2.890625 0l0.296875 -0.515625l1.34375 0.953125q0.4375 0.296875 -0.234375 0.59375l-1.109375 4.609375l3.484375 0l0 1.1875l-4.671875 0q0.375 1.625 1.34375 3.046875q0.8125 -0.96875 1.703125 -2.375l1.1875 0.8125q0.515625 0.515625 -0.21875 0.515625q-0.96875 1.109375 -1.859375 2.0q1.40625 1.640625 3.109375 2.609375l-1.1875 1.328125zm-16.625 -1.109375q0.671875 -2.15625 0.890625 -4.828125l1.34375 0.21875q0.671875 0.15625 0.078125 0.53125q-0.296875 2.515625 -0.890625 4.671875l-1.421875 -0.59375zm5.640625 -0.96875q-0.140625 -1.921875 -0.515625 -3.5625l1.34375 -0.21875q0.4375 1.625 0.65625 3.34375l-1.484375 0.4375zm4.09375 -10.015625l3.1875 0l0.296875 -1.484375l-3.046875 0l-0.4375 1.484375zm16.625 0.671875q-0.453125 -0.375 -1.265625 -0.75l0.59375 -1.03125q0.8125 0.296875 1.40625 0.734375l0.75 -1.1875l-2.828125 0l0 -1.1875l3.421875 0l0.359375 -0.375l0.890625 0.890625q0.453125 0.375 -0.140625 0.375q-0.890625 1.703125 -1.9375 3.1875l4.609375 0q-1.703125 -1.921875 -2.671875 -4.671875l1.265625 -0.4375q0.4375 1.109375 0.890625 1.921875q0.890625 -0.8125 1.546875 -1.625l1.265625 0.890625q0.296875 0.359375 -0.296875 0.21875l-1.859375 1.5625q0.453125 0.59375 0.828125 0.953125q0.8125 -0.8125 1.703125 -2.0l1.109375 0.8125q0.453125 0.53125 -0.21875 0.375l-1.78125 1.640625q1.1875 1.109375 2.75 2.078125l-1.125 1.25q-1.546875 -1.03125 -2.8125 -2.375l0 0.59375l-5.640625 0l0 -0.59375q-0.8125 1.265625 -2.75 2.671875l-0.890625 -1.1875q1.859375 -1.1875 2.828125 -2.734375zm4.296875 10.234375q0.453125 -0.8125 0.96875 -2.0l1.484375 0.4375q0.296875 0.296875 -0.21875 0.375l-0.671875 1.1875l3.5625 0l0 1.421875l-11.65625 0l0 -1.421875l3.484375 0q-0.0625 -0.515625 -0.65625 -1.5625l1.40625 -0.4375q0.59375 0.96875 0.890625 2.0l1.40625 0zm-7.640625 -8.015625l0 3.78125q1.625 1.125 2.515625 2.3125l-1.03125 1.109375q-0.8125 -1.109375 -1.78125 -1.859375q-0.890625 3.046875 -2.296875 4.453125l-1.046875 -1.1875q2.375 -2.59375 2.375 -6.375l0 -8.84375l1.1875 0q0.890625 0.15625 0.078125 0.53125l0 4.21875l1.1875 -1.40625l1.109375 1.109375q0.078125 0.375 -0.375 0.234375l-1.921875 1.921875zm2.671875 1.109375l8.6875 0l0 4.3125l-8.6875 0l0 -4.3125zm1.265625 1.1875l0 1.9375l6.15625 0l0 -1.9375l-6.15625 0zm-5.71875 -4.890625q0.375 0.140625 -0.078125 0.4375q-0.375 2.671875 -1.03125 5.34375l-1.34375 -0.8125q0.75 -2.375 1.046875 -5.34375l1.40625 0.375z" fill-rule="nonzero"></path><path fill="#000000" fill-opacity="0.0" d="m132.88715 49.089237l44.15747 0" fill-rule="nonzero"></path><path stroke="#000000" stroke-width="1.0" stroke-linejoin="round" stroke-linecap="butt" d="m132.88715 49.089237l38.15747 0" fill-rule="evenodd"></path><path fill="#000000" stroke="#000000" stroke-width="1.0" stroke-linecap="butt" d="m171.04462 50.74097l4.538101 -1.6517334l-4.538101 -1.6517296z" fill-rule="evenodd"></path><path fill="#000000" fill-opacity="0.0" d="m291.15485 49.089237l44.1575 0" fill-rule="nonzero"></path><path stroke="#000000" stroke-width="1.0" stroke-linejoin="round" stroke-linecap="butt" d="m291.15485 49.089237l38.1575 0" fill-rule="evenodd"></path><path fill="#000000" stroke="#000000" stroke-width="1.0" stroke-linecap="butt" d="m329.31235 50.74097l4.538086 -1.6517334l-4.538086 -1.6517296z" fill-rule="evenodd"></path><path fill="#000000" fill-opacity="0.0" d="m449.42258 49.089237l53.448822 0" fill-rule="nonzero"></path><path stroke="#000000" stroke-width="1.0" stroke-linejoin="round" stroke-linecap="butt" d="m449.42258 49.089237l47.448822 0" fill-rule="evenodd"></path><path fill="#000000" stroke="#000000" stroke-width="1.0" stroke-linecap="butt" d="m496.8714 50.74097l4.538086 -1.6517334l-4.538086 -1.6517296z" fill-rule="evenodd"></path><path fill="#000000" fill-opacity="0.0" d="m616.9659 49.089237l49.165344 0" fill-rule="nonzero"></path><path stroke="#000000" stroke-width="1.0" stroke-linejoin="round" stroke-linecap="butt" d="m616.9659 49.089237l43.165344 0" fill-rule="evenodd"></path><path fill="#000000" stroke="#000000" stroke-width="1.0" stroke-linecap="butt" d="m660.1312 50.74097l4.538086 -1.6517334l-4.538086 -1.6517296z" fill-rule="evenodd"></path><path fill="#000000" fill-opacity="0.0" d="m780.23096 49.089237l48.44098 0" fill-rule="nonzero"></path><path stroke="#000000" stroke-width="1.0" stroke-linejoin="round" stroke-linecap="butt" d="m780.23096 49.089237l42.44098 0" fill-rule="evenodd"></path><path fill="#000000" stroke="#000000" stroke-width="1.0" stroke-linecap="butt" d="m822.67194 50.74097l4.538086 -1.6517334l-4.538086 -1.6517296z" fill-rule="evenodd"></path></g></svg>

